<svg width="104" height="102" viewBox="0 0 104 102" fill="none" xmlns="http://www.w3.org/2000/svg">
<path d="M52.6647 35L52.6647 67.6377M63 57.8071C59.5549 58.3314 52.6647 60.9529 52.6647 67.2445C52.6647 60.9529 45.7745 58.3314 42.3294 57.8071" stroke="white" stroke-width="1.08792"/>
<path d="M8.15467 51.3455C8.70951 51.3455 9.15556 50.8994 9.15556 50.3555C9.15556 49.8006 8.70951 49.3546 8.15467 49.3546C7.61071 49.3546 7.16466 49.8006 7.16466 50.3555C7.16466 50.8994 7.61071 51.3455 8.15467 51.3455Z" fill="white"/>
<path d="M11.5329 41.9484C11.8484 40.8505 11.5374 40.0027 11.0392 39.452L10.2526 39.8259C10.6346 40.1507 11.0716 40.7178 10.7801 41.732C10.5216 42.6312 9.74386 43.0529 8.66233 42.7987L9.74122 39.045C9.65312 38.997 9.50229 38.931 9.34546 38.886C7.86071 38.4592 6.65979 39.0536 6.24807 40.486C5.84837 41.8767 6.60102 43.1571 8.20077 43.6169C9.81098 44.0797 11.1212 43.3809 11.5329 41.9484ZM7.01135 40.7054C7.25478 39.8585 7.90248 39.456 8.8601 39.6294L8.00962 42.5884C7.10164 42.2029 6.77694 41.521 7.01135 40.7054Z" fill="white"/>
<path d="M13.4132 35.5668L12.615 34.1256L12.1635 33.3167L13.0845 33.2171L14.7069 33.0636L15.2114 32.0875L12.005 32.4387L10.5686 29.6023L10.0691 30.5687L11.3093 32.7895L8.79535 33.0333L8.29585 33.9997L11.4196 33.6425L12.9137 36.5333L13.4132 35.5668Z" fill="white"/>
<path d="M19.4323 29.2051L16.789 27.093C17.5249 27.4443 18.3643 27.4744 18.9959 26.6839C19.8244 25.647 19.4906 24.322 18.1902 23.2829C16.8898 22.2439 15.5322 22.2175 14.7037 23.2544C14.0721 24.0448 14.2867 24.8569 14.7917 25.4971L13.7378 24.655L13.147 25.3944L18.8415 29.9445L19.4323 29.2051ZM16.0836 26.5294L15.4971 26.0608C14.8172 25.5175 14.4956 24.7871 15.1204 24.0051C15.6433 23.3507 16.5472 23.1955 17.5926 24.0309C18.6465 24.873 18.6946 25.7887 18.1717 26.4432C17.5469 27.2251 16.7635 27.0727 16.0836 26.5294Z" fill="white"/>
<path d="M23.9174 21.3314L19.0494 15.9061L18.3449 16.5382L23.2129 21.9635L23.9174 21.3314Z" fill="white"/>
<path d="M28.8082 18.0157C30.0387 17.234 30.3335 15.7707 29.441 14.3657C28.5484 12.9607 27.0985 12.6058 25.868 13.3876C24.6375 14.1693 24.3518 15.6268 25.2444 17.0318C26.137 18.4367 27.5777 18.7975 28.8082 18.0157ZM28.3824 17.3454C27.6294 17.8238 26.7734 17.6329 26.0617 16.5126C25.3441 15.3831 25.5408 14.5363 26.2938 14.0579C27.056 13.5737 27.9153 13.7496 28.6329 14.8791C29.3446 15.9994 29.1445 16.8612 28.3824 17.3454Z" fill="white"/>
<path d="M36.2133 14.6944L35.1209 11.9208C34.79 11.0807 35.0658 10.1185 35.6934 9.87131C36.0477 9.73178 36.2952 9.91492 36.4068 10.1983C36.5145 10.4717 36.5025 10.8272 36.3964 11.0327L37.358 10.6539C37.3911 10.5006 37.3829 10.153 37.2194 9.738C36.9483 9.04968 36.2947 8.87448 35.7683 9.08179C34.9383 9.4087 34.6913 10.266 34.798 11.1009L34.2837 9.79514L33.403 10.142L35.3326 15.0412L36.2133 14.6944Z" fill="white"/>
<path d="M44.7627 12.3948C45.8856 12.1853 46.5044 11.5276 46.7737 10.8355L46.0872 10.2995C45.9678 10.7866 45.6564 11.4312 44.619 11.6247C43.6993 11.7963 42.974 11.2897 42.717 10.2088L46.5564 9.49263C46.5599 9.39238 46.5513 9.22797 46.5214 9.06755C46.2381 7.5489 45.1689 6.74125 43.7037 7.01456C42.2813 7.27989 41.4735 8.5262 41.7787 10.1625C42.086 11.8095 43.2975 12.6681 44.7627 12.3948ZM43.8494 7.79528C44.7156 7.63369 45.3655 8.03261 45.6393 8.96648L42.6127 9.53106C42.5508 8.54659 43.0152 7.95089 43.8494 7.79528Z" fill="white"/>
<path d="M57.9713 11.3177L59.387 8.43838L59.9805 7.11694L60.073 8.55734L60.4367 11.7452L61.6587 11.9571L63.8982 7.0013L62.8585 6.821L61.64 9.9001L61.1648 11.1758L61.0611 9.79972L60.6825 6.44366L59.5355 6.24477L58.0383 9.27554L57.4881 10.5383L57.4702 9.17703L57.3488 5.86558L56.309 5.68528L56.76 11.1076L57.9713 11.3177Z" fill="white"/>
<path d="M68.7824 14.4624C69.8343 14.9079 70.7134 14.7013 71.3201 14.273L71.0437 13.4471C70.6752 13.7872 70.0596 14.1527 69.0879 13.7411C68.2264 13.3762 67.9015 12.5534 68.2841 11.5103L71.8805 13.0335C71.9387 12.9519 72.0224 12.8101 72.0861 12.6598C72.6886 11.2373 72.2432 9.9735 70.8707 9.39223C69.5384 8.82792 68.1767 9.42085 67.5275 10.9536C66.8741 12.4963 67.41 13.8811 68.7824 14.4624ZM70.561 10.1235C71.3725 10.4672 71.694 11.1587 71.4065 12.0884L68.5715 10.8877C69.0635 10.0328 69.7796 9.79258 70.561 10.1235Z" fill="white"/>
<path d="M74.6895 18.1755L75.4558 17.0653C75.1507 17.8329 75.1794 18.6723 76.0121 19.247C77.1134 20.0071 78.4118 19.5814 79.3574 18.2115C80.3029 16.8416 80.2404 15.4766 79.1391 14.7165C78.3064 14.1418 77.5114 14.4126 76.9019 14.9701L78.83 12.1766L78.051 11.6389L73.9105 17.6379L74.6895 18.1755ZM75.9625 16.3311L76.3889 15.7133C76.8833 14.997 77.5894 14.6251 78.4132 15.1937C79.1116 15.6757 79.3296 16.5664 78.5694 17.6677C77.8031 18.778 76.893 18.89 76.1946 18.408C75.3709 17.8395 75.4681 17.0474 75.9625 16.3311Z" fill="white"/>
<path d="M82.6623 24.0184C83.3738 24.7529 84.3305 25.0682 85.0807 24.3415C85.6042 23.8343 85.6833 23.2124 85.0613 22.1638L84.717 21.5583C84.3425 20.9214 84.2174 20.5578 84.5534 20.2323C84.8738 19.922 85.3182 20.0367 85.6967 20.4274C86.219 20.9666 86.2859 21.5985 86.0222 22.2175L86.9047 22.3623C87.2004 21.6669 87.0849 20.7033 86.3128 19.9063C85.5179 19.0859 84.5813 18.9633 83.8936 19.6294C83.1982 20.3032 83.5081 21.139 83.9054 21.7993L84.2726 22.4129C84.6025 22.9567 84.8262 23.4065 84.4824 23.7396C84.1464 24.0651 83.6868 23.9347 83.2554 23.4893C82.5287 22.7391 82.5572 21.9087 82.8583 21.3595L81.9985 21.2382C81.5451 22.1773 81.8977 23.2292 82.6623 24.0184Z" fill="white"/>
<path d="M91.7705 25.5916L92.7332 24.918L92.1905 24.1425L91.2279 24.8162L91.7705 25.5916ZM86.761 29.097L91.0752 26.0782L90.5326 25.3027L86.2184 28.3215L86.761 29.097Z" fill="white"/>
<path d="M90.0623 34.7494C90.3887 35.4011 90.9144 35.6976 91.3377 35.7411L92.033 35.04C91.6778 35.0597 91.1815 34.9433 90.972 34.525C90.7869 34.1553 90.7915 33.8002 91.3946 33.4981L93.9822 32.2023L94.7568 33.749L95.4182 33.4177L94.6436 31.871L95.8693 31.2572L94.8229 30.7227L94.2198 31.0247L93.8398 30.266L93.1784 30.5972L93.5583 31.356L90.7179 32.7785C89.9105 33.1828 89.6775 33.9809 90.0623 34.7494Z" fill="white"/>
<path d="M92.102 41.6364C92.4175 42.7343 93.1312 43.2876 93.8458 43.4897L94.3139 42.7552C93.8177 42.6828 93.1463 42.4343 92.8548 41.4201C92.5963 40.5208 93.0315 39.7506 94.083 39.3917L95.1619 43.1454C95.262 43.1393 95.4248 43.1151 95.5817 43.07C97.0664 42.6433 97.7685 41.502 97.3567 40.0695C96.957 38.6789 95.6394 37.9935 94.0396 38.4533C92.4294 38.9161 91.6903 40.204 92.102 41.6364ZM96.5934 40.2889C96.8369 41.1358 96.5017 41.8208 95.5982 42.1823L94.7477 39.2233C95.7218 39.0679 96.359 39.4733 96.5934 40.2889Z" fill="white"/>
<path d="M95.1547 51.3455C95.7095 51.3455 96.1556 50.8994 96.1556 50.3555C96.1556 49.8006 95.7095 49.3546 95.1547 49.3546C94.6107 49.3546 94.1647 49.8006 94.1647 50.3555C94.1647 50.8994 94.6107 51.3455 95.1547 51.3455Z" fill="white"/>
<path d="M92.4671 61.0516C92.1516 62.1495 92.4626 62.9973 92.9608 63.548L93.7474 63.1741C93.3654 62.8492 92.9284 62.2822 93.2199 61.268C93.4784 60.3688 94.2561 59.9471 95.3377 60.2013L94.2588 63.955C94.3469 64.003 94.4977 64.069 94.6545 64.114C96.1393 64.5408 97.3402 63.9464 97.7519 62.514C98.1516 61.1233 97.399 59.8429 95.7992 59.3831C94.189 58.9203 92.8788 59.6191 92.4671 61.0516ZM96.9886 62.2946C96.7452 63.1415 96.0975 63.544 95.1399 63.3706L95.9904 60.4116C96.8984 60.7971 97.2231 61.479 96.9886 62.2946Z" fill="white"/>
<path d="M90.5868 67.4332L91.385 68.8744L91.8365 69.6833L90.9155 69.7829L89.2931 69.9364L88.7886 70.9125L91.995 70.5613L93.4314 73.3977L93.9309 72.4313L92.6907 70.2105L95.2047 69.9667L95.7041 69.0003L92.5804 69.3575L91.0863 66.4667L90.5868 67.4332Z" fill="white"/>
<path d="M84.5677 72.7949L87.211 74.907C86.4751 74.5557 85.6357 74.5256 85.0041 75.3161C84.1756 76.353 84.5094 77.678 85.8098 78.7171C87.1102 79.7561 88.4678 79.7825 89.2963 78.7456C89.9279 77.9552 89.7133 77.1431 89.2083 76.5029L90.2622 77.345L90.853 76.6056L85.1585 72.0555L84.5677 72.7949ZM87.9164 75.4706L88.5029 75.9392C89.1828 76.4825 89.5044 77.2129 88.8796 77.9949C88.3567 78.6493 87.4528 78.8045 86.4074 77.9691C85.3535 77.127 85.3054 76.2113 85.8283 75.5568C86.4531 74.7749 87.2365 74.9274 87.9164 75.4706Z" fill="white"/>
<path d="M80.0826 80.6686L84.9506 86.0939L85.6551 85.4618L80.7871 80.0365L80.0826 80.6686Z" fill="white"/>
<path d="M75.1918 84.9843C73.9613 85.766 73.6665 87.2293 74.559 88.6343C75.4516 90.0393 76.9015 90.3942 78.132 89.6124C79.3625 88.8307 79.6482 87.3732 78.7556 85.9682C77.863 84.5633 76.4223 84.2026 75.1918 84.9843ZM75.6176 85.6546C76.3706 85.1763 77.2266 85.3671 77.9383 86.4875C78.6559 87.6169 78.4592 88.4637 77.7062 88.9421C76.944 89.4263 76.0847 89.2504 75.3671 88.1209C74.6554 87.0006 74.8555 86.1388 75.6176 85.6546Z" fill="white"/>
<path d="M67.7867 88.3056L68.8791 91.0792C69.21 91.9193 68.9342 92.8815 68.3066 93.1287C67.9523 93.2682 67.7048 93.0851 67.5932 92.8017C67.4855 92.5283 67.4975 92.1728 67.6036 91.9673L66.642 92.3461C66.6089 92.4994 66.6171 92.847 66.7806 93.262C67.0517 93.9503 67.7053 94.1255 68.2317 93.9182C69.0617 93.5913 69.3087 92.734 69.202 91.8991L69.7163 93.2049L70.597 92.858L68.6674 87.9588L67.7867 88.3056Z" fill="white"/>
<path d="M60.2373 90.6052C59.1144 90.8147 58.4956 91.4724 58.2263 92.1645L58.9128 92.7005C59.0322 92.2134 59.3436 91.5688 60.381 91.3753C61.3007 91.2037 62.026 91.7103 62.283 92.7912L58.4436 93.5074C58.4401 93.6076 58.4487 93.772 58.4786 93.9324C58.7619 95.4511 59.8311 96.2587 61.2963 95.9854C62.7187 95.7201 63.5265 94.4738 63.2213 92.8375C62.914 91.1905 61.7025 90.3319 60.2373 90.6052ZM61.1506 95.2047C60.2844 95.3663 59.6345 94.9674 59.3607 94.0335L62.3873 93.4689C62.4492 94.4534 61.9848 95.0491 61.1506 95.2047Z" fill="white"/>
<path d="M46.0287 90.6823L44.613 93.5616L44.0195 94.8831L43.927 93.4427L43.5633 90.2548L42.3413 90.0429L40.1018 94.9987L41.1415 95.179L42.36 92.0999L42.8352 90.8242L42.9389 92.2003L43.3175 95.5563L44.4645 95.7552L45.9617 92.7245L46.5119 91.4617L46.5298 92.823L46.6512 96.1344L47.691 96.3147L47.24 90.8924L46.0287 90.6823Z" fill="white"/>
<path d="M35.2176 87.5376C34.1657 87.0921 33.2866 87.2987 32.6799 87.727L32.9563 88.5529C33.3248 88.2128 33.9404 87.8473 34.9121 88.2589C35.7736 88.6238 36.0986 89.4467 35.7159 90.4897L32.1195 88.9665C32.0613 89.0482 31.9776 89.1899 31.9139 89.3402C31.3115 90.7627 31.7568 92.0265 33.1293 92.6078C34.4616 93.1721 35.8233 92.5792 36.4725 91.0464C37.1259 89.5037 36.59 88.1189 35.2176 87.5376ZM33.439 91.8765C32.6275 91.5328 32.306 90.8414 32.5935 89.9116L35.4285 91.1123C34.9365 91.9672 34.2204 92.2074 33.439 91.8765Z" fill="white"/>
<path d="M29.3105 84.8245L28.5442 85.9347C28.8493 85.1671 28.8206 84.3277 27.9879 83.753C26.8866 82.9929 25.5882 83.4186 24.6426 84.7885C23.6971 86.1584 23.7596 87.5234 24.8609 88.2835C25.6936 88.8582 26.4886 88.5874 27.0981 88.0299L25.17 90.8234L25.949 91.3611L30.0895 85.3621L29.3105 84.8245ZM28.0375 86.6689L27.6111 87.2867C27.1167 88.003 26.4106 88.3749 25.5868 87.8063C24.8884 87.3243 24.6704 86.4336 25.4306 85.3323C26.1969 84.222 27.107 84.11 27.8054 84.592C28.6291 85.1605 28.5319 85.9526 28.0375 86.6689Z" fill="white"/>
<path d="M21.3377 77.9816C20.6262 77.2471 19.6695 76.9318 18.9193 77.6585C18.3958 78.1657 18.3167 78.7877 18.9387 79.8362L19.283 80.4418C19.6575 81.0786 19.7826 81.4422 19.4466 81.7677C19.1262 82.078 18.6818 81.9633 18.3033 81.5726C17.781 81.0334 17.7141 80.4015 17.9778 79.7825L17.0953 79.6377C16.7996 80.3331 16.9151 81.2967 17.6872 82.0937C18.4821 82.9141 19.4187 83.0367 20.1064 82.3706C20.8018 81.6969 20.4919 80.861 20.0946 80.2007L19.7274 79.5871C19.3975 79.0433 19.1738 78.5935 19.5176 78.2605C19.8536 77.935 20.3132 78.0653 20.7446 78.5107C21.4713 79.2609 21.4428 80.0913 21.1417 80.6405L22.0015 80.7619C22.4549 79.8227 22.1023 78.7708 21.3377 77.9816Z" fill="white"/>
<path d="M12.2295 76.4084L11.2668 77.082L11.8095 77.8575L12.7721 77.1838L12.2295 76.4084ZM17.239 72.903L12.9248 75.9218L13.4674 76.6973L17.7816 73.6785L17.239 72.903Z" fill="white"/>
<path d="M13.9377 67.2506C13.6113 66.5989 13.0856 66.3024 12.6623 66.2589L11.967 66.96C12.3222 66.9403 12.8185 67.0567 13.028 67.475C13.2131 67.8447 13.2085 68.1998 12.6054 68.5019L10.0178 69.7977L9.24324 68.2511L8.58177 68.5823L9.35636 70.129L8.13069 70.7428L9.17708 71.2773L9.78019 70.9753L10.1602 71.7341L10.8216 71.4028L10.4417 70.644L13.2821 69.2215C14.0895 68.8172 14.3225 68.0191 13.9377 67.2506Z" fill="white"/>
<path d="M11.898 60.3636C11.5825 59.2657 10.8688 58.7124 10.1542 58.5103L9.68607 59.2448C10.1823 59.3172 10.8537 59.5657 11.1452 60.58C11.4037 61.4792 10.9685 62.2495 9.91703 62.6083L8.83815 58.8546C8.73803 58.8607 8.57518 58.8849 8.41834 58.93C6.9336 59.3567 6.23155 60.498 6.64327 61.9305C7.04297 63.3211 8.3606 64.0065 9.96035 63.5467C11.5706 63.0839 12.3097 61.796 11.898 60.3636ZM7.40655 61.7111C7.16313 60.8642 7.49828 60.1792 8.40181 59.8177L9.2523 62.7767C8.27821 62.9321 7.64096 62.5267 7.40655 61.7111Z" fill="white"/>
</svg>
