<svg width="1440" height="215" viewBox="0 0 1440 215" fill="none" xmlns="http://www.w3.org/2000/svg">
<rect x="-215" y="115" width="1869" height="100" transform="rotate(-3.5 -215 115)" fill="#FFDF00"/>
<path d="M790.071 99.3416L793.038 97.38L791.14 94.5136L807.283 93.5262L800.069 108L798.171 105.129L795.204 107.096L800.503 115.1L813.216 89.5979L784.772 91.3376L790.071 99.3416Z" fill="#151515"/>
<path d="M827.204 108.936L832.453 93.9921L829.518 94.1715L825.836 105.009L820.839 94.7024L817.905 94.8818L824.935 109.075L827.204 108.936Z" fill="#151515"/>
<path d="M835.924 93.7797L836.815 108.348L847.658 107.685L847.5 105.104L839.446 105.597L839.232 102.101L846.038 101.684L845.88 99.1036L839.074 99.5198L838.871 96.1899L846.821 95.7036L846.663 93.1229L835.924 93.7797Z" fill="#151515"/>
<path d="M850.769 92.8718L851.66 107.44L854.449 107.27L854.134 102.129L857.527 101.922L860.901 106.875L864.002 106.685L860.328 101.27C861.968 100.418 862.952 98.7488 862.836 96.8549C862.755 95.5229 862.207 94.4283 861.175 93.5932C860.162 92.7568 858.948 92.3715 857.512 92.4594L850.769 92.8718ZM857.67 95.0401C858.898 94.965 859.847 95.8052 859.923 97.0331C859.998 98.261 859.159 99.2315 857.931 99.3066L853.977 99.5484L853.716 95.2819L857.67 95.0401Z" fill="#151515"/>
<path d="M870.726 94.2415L871.459 106.229L874.269 106.058L873.535 94.0697L878.364 93.7744L878.206 91.1936L865.74 91.9561L865.897 94.5369L870.726 94.2415Z" fill="#151515"/>
<path d="M882.004 90.9614L882.895 105.53L893.738 104.867L893.58 102.286L885.526 102.779L885.312 99.2822L892.117 98.866L891.959 96.2852L885.154 96.7015L884.95 93.3715L892.9 92.8853L892.743 90.3046L882.004 90.9614Z" fill="#151515"/>
<path d="M901.676 96.9234L896.72 104.684L900.07 104.479L903.481 99.1109L907.521 104.024L910.851 103.82L905.006 96.7198L909.752 89.2642L906.422 89.4679L903.201 94.5323L899.388 89.8981L896.037 90.1031L901.676 96.9234Z" fill="#151515"/>
<path d="M999.113 97.9282C998.917 97.6558 998.67 97.425 998.384 97.2494C998.099 97.0738 997.781 96.9569 997.45 96.9054C996.181 96.6911 995.05 95.9833 994.301 94.937C993.553 93.8905 993.25 92.5905 993.457 91.321C993.537 90.8304 993.469 90.3271 993.264 89.8745C993.058 89.4219 992.724 89.0402 992.302 88.7771C991.88 88.5141 991.39 88.3816 990.893 88.3962C990.396 88.4108 989.915 88.5718 989.509 88.8592C989.104 89.1465 988.792 89.5472 988.614 90.0111C988.435 90.475 988.397 90.9813 988.506 91.4664C988.614 91.9515 988.863 92.3939 989.222 92.7379C989.581 93.0819 990.033 93.3122 990.522 93.3998C991.155 93.5024 991.76 93.7287 992.305 94.0658C992.85 94.4029 993.323 94.8443 993.696 95.3644C994.07 95.8846 994.337 96.4735 994.483 97.0972C994.629 97.7209 994.65 98.3673 994.546 98.9993C994.486 99.4062 994.526 99.8216 994.664 100.209C994.801 100.597 995.031 100.945 995.334 101.223C995.637 101.502 996.003 101.702 996.401 101.806C996.799 101.911 997.216 101.916 997.617 101.822C998.017 101.728 998.389 101.538 998.699 101.267C999.009 100.997 999.248 100.655 999.395 100.271C999.543 99.8871 999.594 99.4729 999.545 99.0645C999.496 98.6562 999.347 98.266 999.113 97.9282Z" fill="#151515"/>
<path d="M983.463 96.0803C983.918 96.2937 984.427 96.3663 984.923 96.2887C985.42 96.2111 985.882 95.9869 986.25 95.6448C986.619 95.3028 986.876 94.8585 986.99 94.369C987.104 93.8794 987.069 93.367 986.89 92.8974C986.663 92.2986 986.556 91.6607 986.575 91.0204C986.595 90.3802 986.741 89.7501 987.004 89.1662C987.268 88.5824 987.644 88.0564 988.112 87.6182C988.579 87.1801 989.128 86.8385 989.728 86.6131C990.193 86.4356 990.594 86.1246 990.883 85.7193C991.172 85.3139 991.334 84.8323 991.349 84.3349C991.365 83.8376 991.233 83.3468 990.97 82.9244C990.707 82.5019 990.325 82.1666 989.872 81.9607C989.419 81.7548 988.915 81.6874 988.424 81.7672C987.933 81.8469 987.476 82.0701 987.112 82.4087C986.747 82.7473 986.491 83.1862 986.375 83.6701C986.259 84.154 986.289 84.6613 986.461 85.1282C986.911 86.3333 986.866 87.6675 986.334 88.839C985.803 90.0104 984.829 90.9236 983.626 91.3788C983.151 91.5488 982.737 91.8576 982.439 92.2653C982.141 92.673 981.972 93.1608 981.954 93.6655C981.937 94.1702 982.071 94.6686 982.34 95.0961C982.609 95.5237 983 95.8607 983.462 96.0635L983.463 96.0803Z" fill="#151515"/>
<path d="M989.916 95.2726C989.582 95.3049 989.258 95.4034 988.963 95.5625C988.667 95.7216 988.406 95.938 988.196 96.1991C987.377 97.19 986.199 97.8164 984.919 97.9412C983.64 98.0661 982.363 97.6792 981.368 96.8652C981.11 96.6518 980.813 96.4916 980.493 96.394C980.174 96.2965 979.838 96.2634 979.505 96.2969C979.096 96.3413 978.704 96.4853 978.363 96.7162C978.022 96.947 977.743 97.2578 977.55 97.6213C977.357 97.9849 977.256 98.3902 977.255 98.8018C977.255 99.2135 977.355 99.6189 977.548 99.9829C977.74 100.347 978.018 100.658 978.359 100.89C978.699 101.121 979.091 101.266 979.5 101.311C979.909 101.356 980.323 101.301 980.706 101.149C981.089 100.998 981.429 100.755 981.696 100.442C982.101 99.9453 982.6 99.5336 983.165 99.2304C983.729 98.9272 984.348 98.7384 984.986 98.6747C985.624 98.6111 986.268 98.6739 986.881 98.8595C987.495 99.0452 988.065 99.35 988.561 99.7565C988.883 100.014 989.263 100.188 989.668 100.264C990.073 100.34 990.49 100.316 990.884 100.194C991.277 100.071 991.635 99.8541 991.925 99.5615C992.215 99.269 992.429 98.9097 992.548 98.5153C992.668 98.1208 992.688 97.7032 992.609 97.2988C992.529 96.8945 992.352 96.5158 992.092 96.1958C991.833 95.8759 991.499 95.6245 991.119 95.4635C990.74 95.3026 990.327 95.237 989.916 95.2726Z" fill="#151515"/>
<path d="M1016.58 97.0235C1017.93 96.9408 1018.74 96.3985 1019.02 95.3967C1019.11 95.0195 1019.16 94.5422 1019.18 93.9648L1018.46 93.9812C1018.42 95.2657 1018.14 95.9337 1017.6 95.985C1017.19 95.9729 1016.96 95.5224 1016.91 94.6336L1016.55 88.8282C1016.41 86.5135 1015.25 85.1533 1013.07 84.7477C1012.51 84.652 1011.9 84.624 1011.25 84.6637C1008.73 84.8177 1007.18 85.4608 1006.6 86.593C1006.45 86.881 1006.39 87.1824 1006.41 87.4972C1006.45 88.2194 1006.82 88.6521 1007.52 88.7954C1007.69 88.8407 1007.87 88.8577 1008.05 88.8464C1008.85 88.7977 1009.36 88.376 1009.59 87.5813C1009.62 87.4679 1009.66 87.2793 1009.72 87.0155C1009.88 86.2624 1010.11 85.7836 1010.42 85.5791C1010.61 85.4741 1010.84 85.4136 1011.1 85.3978C1011.97 85.3445 1012.53 85.84 1012.78 86.8842C1012.88 87.2685 1012.94 87.7292 1012.98 88.2662L1013.09 90.0717C1008.33 90.4554 1006.02 91.8607 1006.15 94.2877C1006.25 95.9358 1007.04 96.9471 1008.51 97.3217C1008.95 97.4253 1009.42 97.4612 1009.94 97.4295C1011.52 97.3332 1012.64 96.6699 1013.3 95.4394C1013.44 95.1896 1013.54 94.9323 1013.62 94.6674C1014.11 96.2361 1015.09 97.0215 1016.58 97.0235ZM1011.31 96.1468C1010.38 96.1664 1009.86 95.3712 1009.74 93.7613C1009.67 92.5391 1010.12 91.7123 1011.1 91.2807C1011.63 91.0812 1012.3 90.9375 1013.14 90.8495L1013.3 93.5438C1013.03 94.8616 1012.51 95.6924 1011.75 96.0362C1011.59 96.102 1011.44 96.1388 1011.31 96.1468Z" fill="#151515"/>
<path d="M1027.19 95.3711L1025.13 95.4968L1024.76 89.4971C1024.77 87.5448 1025.17 86.3308 1025.96 85.855C1026.09 85.7915 1026.21 85.7564 1026.32 85.7496C1026.52 85.7371 1026.76 85.9365 1027.02 86.3477C1027.39 86.9199 1027.78 87.2681 1028.17 87.3925C1028.36 87.4367 1028.57 87.452 1028.79 87.4385C1029.53 87.3931 1030.04 87.009 1030.31 86.2861C1030.41 86.0386 1030.45 85.7852 1030.43 85.5259C1030.37 84.6 1029.88 84.0445 1028.96 83.8592C1028.74 83.8173 1028.5 83.8037 1028.26 83.8184C1027.11 83.8886 1026.13 84.404 1025.32 85.3646C1024.96 85.8328 1024.69 86.3324 1024.52 86.8634L1024.17 84.292L1019.3 84.5893L1019.35 85.3115L1020.96 85.213L1021.51 94.2682C1021.56 95.083 1021.27 95.5658 1020.63 95.7165C1020.44 95.7649 1020.23 95.7964 1019.99 95.8111L1020.04 96.5333L1027.9 96.0525C1027.87 95.6266 1027.74 95.4025 1027.49 95.3802C1027.4 95.3674 1027.3 95.3643 1027.19 95.3711Z" fill="#151515"/>
<path d="M1035.47 89.5391C1035.31 86.9466 1035.53 85.27 1036.11 84.5093C1036.47 84.0596 1037.01 83.8133 1037.71 83.7702C1038.9 83.6977 1039.69 84.2531 1040.1 85.4364C1040.37 86.2006 1040.56 87.4252 1040.66 89.1103C1040.82 91.8139 1040.58 93.5391 1039.92 94.2858C1039.53 94.6996 1039.02 94.9263 1038.37 94.9659C1037.22 95.0362 1036.44 94.4889 1036.04 93.3241C1035.77 92.5415 1035.58 91.2798 1035.47 89.5391ZM1037.81 83.0395C1035.53 83.1788 1033.83 84.0636 1032.7 85.6939C1031.92 86.857 1031.57 88.1793 1031.66 89.6608C1031.79 91.7533 1032.61 93.3664 1034.13 94.5003C1035.34 95.393 1036.74 95.7906 1038.33 95.6932C1040.51 95.5596 1042.18 94.6678 1043.32 93.0179C1044.18 91.7761 1044.56 90.3775 1044.46 88.822C1044.33 86.748 1043.5 85.1724 1041.97 84.0953C1040.79 83.294 1039.4 82.9421 1037.81 83.0395Z" fill="#151515"/>
<path d="M1051.82 93.8642L1051.32 93.8948L1050.91 86.7267C1050.93 85.257 1051.36 84.2739 1052.18 83.7773C1052.41 83.633 1052.65 83.5535 1052.89 83.5387C1053.58 83.4968 1054.09 83.8927 1054.44 84.7264C1054.6 85.1259 1054.69 85.5756 1054.72 86.0756L1055.1 92.2142C1055.14 92.9735 1054.99 93.4379 1054.65 93.6076C1054.49 93.6733 1054.26 93.7153 1053.96 93.7334L1054.01 94.4556L1059.89 94.0954C1059.87 93.6695 1059.73 93.4454 1059.49 93.4231C1059.38 93.4114 1059.27 93.4089 1059.16 93.4157L1058.68 93.4446L1058.25 86.3337L1058.24 86.1393C1058.27 84.5944 1058.71 83.6101 1059.56 83.1866C1059.74 83.1012 1059.93 83.0528 1060.11 83.0415C1060.91 82.9928 1061.48 83.4316 1061.84 84.3578C1061.97 84.7399 1062.05 85.1624 1062.08 85.6254L1062.46 91.764C1062.5 92.5233 1062.35 92.9877 1062.01 93.1574C1061.85 93.2231 1061.62 93.2651 1061.32 93.2832L1061.37 94.0054L1067.7 93.618C1067.67 93.1921 1067.54 92.968 1067.3 92.9457C1067.18 92.934 1067.07 92.9315 1066.96 92.9383L1066.04 92.9944L1065.6 85.7446C1065.49 83.9299 1064.81 82.6797 1063.56 81.9941C1062.98 81.6762 1062.37 81.5371 1061.72 81.5768C1059.93 81.7052 1058.64 82.6483 1057.85 84.4064C1057.33 83.1188 1056.49 82.3429 1055.34 82.0786C1055.04 82.0227 1054.74 82.0038 1054.44 82.0219C1052.67 82.1491 1051.42 83.0432 1050.71 84.7041L1050.44 82.6849L1045.5 82.9873L1045.54 83.7095L1047.15 83.6109L1047.71 92.6662C1047.76 93.518 1047.39 94.0145 1046.6 94.1558C1046.47 94.1823 1046.33 94.2 1046.18 94.2091L1046.23 94.9313L1052.53 94.5456C1052.51 94.1197 1052.37 93.8956 1052.13 93.8733C1052.04 93.8604 1051.93 93.8574 1051.82 93.8642Z" fill="#151515"/>
<path d="M1074.93 92.4507L1073.91 92.5136L1073.22 81.2918L1068.08 81.6061L1068.12 82.3283L1069.74 82.2297L1070.29 91.285C1070.34 92.0997 1070.04 92.5825 1069.4 92.7333C1069.22 92.7816 1069.01 92.8132 1068.77 92.8279L1068.81 93.5501L1075.64 93.1321C1075.62 92.7062 1075.48 92.4821 1075.24 92.4598C1075.15 92.447 1075.04 92.4439 1074.93 92.4507ZM1073.25 77.6377C1073.2 76.823 1072.8 76.2432 1072.05 75.8985C1071.73 75.7326 1071.39 75.6604 1071.04 75.6819C1070.24 75.7306 1069.66 76.1285 1069.3 76.8756C1069.15 77.2006 1069.09 77.539 1069.11 77.8909C1069.16 78.7057 1069.56 79.2761 1070.3 79.6023C1070.62 79.7497 1070.95 79.8132 1071.29 79.7929C1072.1 79.743 1072.68 79.3636 1073.03 78.6547C1073.2 78.3286 1073.27 77.9896 1073.25 77.6377Z" fill="#151515"/>
<path d="M1076.34 93.0897L1080.53 92.8331L1080.49 92.1109L1078.54 92.2299L1081.62 87.8595L1084.66 91.8561L1083.13 91.9495L1083.17 92.6717L1089.59 92.2793C1089.56 91.8534 1089.4 91.631 1089.1 91.6121C1089.03 91.5981 1088.94 91.5939 1088.85 91.5996L1088.29 91.6336L1083.86 85.7707L1086.4 82.0193C1086.74 81.4967 1087.19 81.19 1087.76 81.0994C1088.04 81.0454 1088.2 80.9241 1088.24 80.7355C1088.25 80.6232 1088.25 80.5023 1088.25 80.3727L1084.14 80.6241L1084.18 81.3463L1085.99 81.2359L1083.35 85.1052L1080.68 81.5604L1082.21 81.4669L1082.16 80.7447L1075.72 81.1389L1075.76 81.8611L1077.04 81.7829L1081.17 87.2183L1078.13 91.4464C1077.77 91.9332 1077.32 92.2398 1076.77 92.3664C1076.51 92.4007 1076.37 92.5209 1076.34 92.7269C1076.33 92.8391 1076.33 92.96 1076.34 93.0897Z" fill="#151515"/>
<path d="M1168.5 74.7018C1165.76 74.8694 1160.14 72.9834 1159.97 70.2425L1159.93 70.2449C1160.06 72.4386 1161.06 74.4892 1162.71 75.9455C1164.36 77.4018 1166.51 78.1447 1168.71 78.0106C1170.02 77.9301 1171.32 78.3757 1172.3 79.2495C1173.29 80.1233 1173.89 81.3536 1173.97 82.6698C1174.05 83.986 1173.61 85.2805 1172.73 86.2683C1171.86 87.2562 1170.63 87.8564 1169.31 87.9373C1168 88.018 1166.7 87.5725 1165.72 86.6989C1164.73 85.8253 1164.13 84.5951 1164.05 83.2789C1163.98 82.1926 1163.7 81.1301 1163.22 80.152C1162.75 79.1739 1162.08 78.2993 1161.27 77.5783C1160.45 76.8572 1159.5 76.3037 1158.47 75.9494C1157.44 75.5952 1156.36 75.447 1155.27 75.5135L1155.27 75.5538C1158.01 75.3862 1160.57 80.738 1160.74 83.4792L1160.74 83.4792C1160.84 85.1152 1161.42 86.6847 1162.41 87.9894C1163.41 89.2941 1164.76 90.2753 1166.31 90.8089C1167.86 91.3426 1169.53 91.4047 1171.12 90.9874C1172.7 90.5702 1174.13 89.6923 1175.22 88.4649C1176.3 87.2374 1177 85.7154 1177.22 84.0913C1177.44 82.4673 1177.18 80.8142 1176.46 79.341C1175.74 77.8679 1174.6 76.6408 1173.18 75.815C1171.77 74.9892 1170.14 74.6018 1168.5 74.7018Z" fill="#151515"/>
<path d="M1185.81 89.0628C1185.83 89.3194 1186.07 89.5363 1186.33 89.5206L1187.61 89.4421C1187.92 89.4233 1188.32 89.2955 1188.3 88.9105L1187.83 81.2613L1192.74 80.9614L1193.2 88.6106C1193.22 88.8673 1193.46 89.0842 1193.72 89.0685L1195.18 88.979C1195.44 88.9633 1195.66 88.7182 1195.64 88.4615L1195.07 79.1695C1195.06 78.9128 1194.81 78.6959 1194.56 78.7116L1187.7 79.1308L1187.51 75.9479C1187.4 74.1768 1188.43 73.3665 1189.48 73.3021C1190.61 73.233 1191.97 73.846 1192.2 73.9602C1192.5 74.097 1192.73 74.1085 1192.86 73.7911L1193.44 72.5967C1193.55 72.3835 1193.48 72.0787 1193.27 71.9629C1192.71 71.6622 1191.07 70.9381 1189.35 71.0433C1186.81 71.1987 1184.83 73.0457 1185.02 76.1002L1185.21 79.2831L1184.01 79.3569C1183.72 79.3742 1183.53 79.5921 1183.55 79.8744L1183.62 81.0295C1183.64 81.2862 1183.85 81.5046 1184.14 81.4874L1185.34 81.4136L1185.81 89.0628Z" fill="#151515"/>
<path d="M1198.98 88.2575C1198.99 88.5141 1199.24 88.731 1199.5 88.7153L1200.73 88.64C1201.14 88.6149 1201.42 88.5462 1201.39 88.1099L1200.99 81.5901C1201.08 81.4042 1201.74 80.2821 1203.22 80.1911C1203.56 80.1707 1203.95 80.2498 1204.11 80.3174C1204.35 80.4059 1204.6 80.3389 1204.71 80.0487L1205.25 78.7532C1205.49 78.0429 1204.29 77.8585 1203.32 77.9181C1201.44 78.0327 1200.57 79.3229 1200.41 79.5906L1200.07 78.7351C1200.01 78.5329 1199.79 78.3915 1199.61 78.4024L1198.87 78.448C1198.61 78.4637 1198.39 78.7088 1198.41 78.9655L1198.98 88.2575Z" fill="#151515"/>
<path d="M1206.5 83.1342C1206.68 86.0861 1208.88 88.399 1211.99 88.209C1213.71 88.1038 1215 87.3805 1215.71 86.6932C1216 86.4177 1215.91 86.2171 1215.72 86.0227L1214.94 85.0913C1214.72 84.8472 1214.54 84.9608 1214.25 85.1593C1213.75 85.5244 1212.93 85.9869 1212.01 86.0434C1210.34 86.1455 1209.05 84.8589 1208.89 83.4775L1215.87 83.0504C1216.1 83.0363 1216.3 82.8441 1216.31 82.5858C1216.32 82.4046 1216.33 82.0693 1216.31 81.8896C1216.15 79.1431 1213.97 77.2666 1211.3 77.4298C1208.22 77.6182 1206.32 80.2337 1206.5 83.1342ZM1208.92 81.8525C1208.99 80.5597 1210.01 79.4927 1211.4 79.4079C1212.65 79.331 1213.74 80.3206 1213.9 81.5479L1208.92 81.8525Z" fill="#151515"/>
<path d="M1219.11 87.0263C1219.12 87.283 1219.37 87.4999 1219.62 87.4842L1221.09 87.3947C1221.34 87.379 1221.56 87.1339 1221.54 86.8772L1220.51 69.8847C1220.49 69.628 1220.24 69.4111 1219.99 69.4268L1218.52 69.5163C1218.27 69.532 1218.05 69.7772 1218.07 70.0339L1219.11 87.0263Z" fill="#151515"/>
<path d="M1225.2 72.6379C1226.05 72.5861 1226.67 71.8779 1226.62 71.0565C1226.57 70.2094 1225.86 69.5829 1225.01 69.6347C1224.19 69.6849 1223.59 70.3915 1223.64 71.2386C1223.69 72.06 1224.38 72.6881 1225.2 72.6379ZM1224.87 86.6737C1224.89 86.9304 1225.13 87.1473 1225.39 87.1316L1226.85 87.0421C1227.11 87.0264 1227.33 86.7813 1227.31 86.5246L1226.74 77.2326C1226.73 76.9759 1226.48 76.759 1226.22 76.7747L1224.76 76.8642C1224.5 76.8799 1224.29 77.1251 1224.3 77.3818L1224.87 86.6737Z" fill="#151515"/>
<path d="M1302.51 81.6414L1301.66 67.7277L1301.32 64.8973L1303.41 67.6203L1314.06 80.9348L1316.55 80.7826L1315.24 59.4015L1312.46 59.5713L1313.3 73.2296L1313.66 76.4749L1311.25 73.2907L1300.88 60.2798L1298.42 60.4301L1299.73 81.8112L1302.51 81.6414ZM1324.56 80.6127C1327.75 80.4176 1329.27 78.0184 1329.66 75.9448L1329.72 77.0298C1329.86 79.1998 1331.05 79.8954 1332.65 79.7979L1334.43 79.6886L1334.28 77.1675L1333.29 77.228C1332.72 77.2631 1332.42 77.0573 1332.37 76.3233L1331.98 69.9728C1331.76 66.303 1329.58 64.1621 1325.78 64.3944C1322.33 64.6052 1320.15 66.6923 1319.33 68.3446L1321.33 70.176C1322.02 68.4359 1323.41 67.0696 1325.61 66.935C1328.04 66.7866 1328.98 68.0742 1329.19 69.8874L1323.76 72.7181C1321.62 73.842 1320.13 75.2461 1320.26 77.3203C1320.38 79.3627 1321.94 80.7728 1324.56 80.6127ZM1323.04 76.7018C1322.98 75.7444 1323.61 75.0652 1325.04 74.2734L1329.41 71.892L1329.54 74.0301C1329.68 76.2639 1327.93 78.1004 1325.31 78.2604C1323.88 78.3483 1323.11 77.7549 1323.04 76.7018ZM1342.4 79.5534C1344.54 79.4227 1345.95 78.3436 1346.56 77.2495L1345.46 74.5617C1345.11 75.5444 1344.22 76.7518 1342.85 76.8357C1341.63 76.9099 1340.68 76.4878 1340.56 74.5093L1340.04 66.0207L1345.11 65.7103L1344.98 63.5403L1339.91 63.8507L1339.66 59.8297L1337.01 62.0419L1337.13 64.0205L1334.64 64.1727L1334.77 66.3427L1337.26 66.1905L1337.83 75.5088C1337.99 78.1575 1339.88 79.7076 1342.4 79.5534ZM1351.46 78.6474L1350.92 69.9035C1350.76 67.2548 1352.41 64.8159 1354.38 64.6949C1355.5 64.6265 1356.03 65.3632 1356.08 66.2567C1356.13 67.1183 1355.78 68.1011 1355.29 68.5791L1358.33 68.3936C1358.56 67.9951 1358.85 67.0162 1358.77 65.7078C1358.64 63.5378 1356.97 62.4547 1355.31 62.5562C1352.69 62.7162 1351.22 64.8881 1350.76 67.3186L1350.51 63.2019L1347.74 63.3717L1348.68 78.8172L1351.46 78.6474ZM1367.95 77.959C1372.23 77.6974 1375.06 74.3527 1374.77 69.4702C1374.47 64.5876 1371.24 61.6138 1366.97 61.8753C1362.69 62.1369 1359.88 65.4796 1360.18 70.3622C1360.48 75.2447 1363.67 78.2205 1367.95 77.959ZM1367.81 75.6294C1365.19 75.7895 1363.26 74.0817 1363.02 70.1885C1362.78 66.2633 1364.49 64.3649 1367.11 64.2049C1369.76 64.0429 1371.72 65.7168 1371.96 69.6419C1372.2 73.5352 1370.46 75.4674 1367.81 75.6294ZM1381.5 76.8099L1380.97 68.066C1380.81 65.4811 1381.77 63.3405 1384.09 63.198C1386.42 63.0555 1387.55 64.108 1387.68 66.3738L1388.3 76.3942L1391.07 76.2244L1390.54 67.4804C1390.38 64.8956 1391.34 62.7549 1393.7 62.6105C1396 62.47 1397.15 63.5205 1397.29 65.7863L1397.9 75.8067L1400.65 75.6388L1399.99 64.9483C1399.79 61.6932 1398.12 59.9699 1395.09 60.1553C1392.28 60.3271 1390.81 62.4989 1390.35 64.9933C1390.02 62.099 1388.35 60.5671 1385.51 60.7409C1382.74 60.9107 1381.27 63.0506 1380.81 65.4492L1380.56 61.3645L1377.78 61.5343L1378.72 76.9797L1381.5 76.8099ZM1408.05 75.5064C1411.24 75.3112 1412.76 72.912 1413.15 70.8384L1413.21 71.9234C1413.34 74.0934 1414.54 74.7891 1416.14 74.6915L1417.92 74.5822L1417.77 72.0611L1416.78 72.1216C1416.21 72.1568 1415.9 71.9509 1415.86 71.217L1415.47 64.8665C1415.25 61.1966 1413.07 59.0557 1409.27 59.288C1405.82 59.4988 1403.64 61.586 1402.82 63.2382L1404.82 65.0696C1405.51 63.3295 1406.9 61.9632 1409.1 61.8286C1411.53 61.6802 1412.47 62.9678 1412.68 64.781L1407.25 67.6117C1405.11 68.7356 1403.62 70.1397 1403.75 72.2139C1403.87 74.2563 1405.43 75.6664 1408.05 75.5064ZM1406.53 71.5954C1406.47 70.6381 1407.1 69.9588 1408.53 69.167L1412.9 66.7856L1413.03 68.9237C1413.17 71.1575 1411.42 72.994 1408.8 73.154C1407.37 73.2419 1406.59 72.6485 1406.53 71.5954Z" fill="#151515"/>
<path d="M45.6427 146.198L45.6264 146.183C45.6251 146.182 45.624 146.181 45.6233 146.18L35.4383 137.169L26.4274 147.354C26.4264 147.355 26.4258 147.357 26.4248 147.357L26.4099 147.374C25.0325 148.939 24.218 150.92 24.0958 153.002C23.9736 155.084 24.5508 157.147 25.7355 158.863C26.9203 160.579 28.6447 161.85 30.6346 162.473C32.6244 163.097 34.7656 163.037 36.7177 162.304C36.882 162.242 37.0609 162.231 37.2315 162.272C39.2582 162.762 41.3905 162.56 43.2895 161.699C45.1884 160.837 46.7449 159.366 47.7116 157.519C48.6784 155.671 48.9999 153.553 48.625 151.502C48.2502 149.451 47.2004 147.584 45.6427 146.198ZM30.2286 153.493C30.1847 153.543 30.151 153.601 30.1295 153.663C30.108 153.726 30.0989 153.792 30.103 153.858C30.2237 155.551 30.8038 157.179 31.7809 158.567C31.8031 158.598 31.8147 158.636 31.8142 158.674C31.8137 158.713 31.801 158.75 31.778 158.781C31.7549 158.812 31.7227 158.835 31.686 158.846C31.6492 158.858 31.6098 158.857 31.5733 158.845C30.8879 158.605 30.2558 158.233 29.7125 157.751C28.5992 156.766 27.9224 155.379 27.8306 153.896C27.7389 152.412 28.2398 150.952 29.2234 149.838L35.7612 142.449L43.1504 148.986C44.2626 149.972 44.9379 151.36 45.0276 152.844C45.1175 154.328 44.6146 155.787 43.6296 156.9C43.149 157.445 42.567 157.89 41.9161 158.212C41.8813 158.229 41.8422 158.234 41.8043 158.227C41.7665 158.22 41.7317 158.202 41.705 158.174C41.6784 158.146 41.6612 158.111 41.656 158.072C41.6508 158.034 41.6578 157.995 41.676 157.961C42.4769 156.465 42.8545 154.778 42.7682 153.083C42.7642 153.017 42.7471 152.953 42.7179 152.893C42.6888 152.834 42.6482 152.78 42.5985 152.737L39.0911 149.444C39.0566 149.419 39.0144 149.407 38.9717 149.409C38.929 149.412 38.8886 149.429 38.8575 149.459C38.8263 149.488 38.8066 149.527 38.8015 149.57C38.7964 149.612 38.8063 149.655 38.8297 149.691C40.2505 151.928 39.3538 155.32 37.6316 157.267L37.6226 157.277C37.3847 157.543 37.0515 157.704 36.6953 157.726C36.3392 157.748 35.9889 157.628 35.7205 157.393L35.7111 157.384C33.7638 155.662 32.461 152.405 33.5988 150.011C33.6176 149.973 33.6223 149.929 33.612 149.888C33.6018 149.846 33.5774 149.81 33.5429 149.784C33.5084 149.759 33.4662 149.746 33.4235 149.749C33.3808 149.752 33.3404 149.769 33.3093 149.799L30.2286 153.493Z" fill="#151515"/>
<path d="M69.1574 143.152L72.3339 142.958L69.7123 154.169L66.082 154.391L64.1448 147.974L62.9843 154.581L59.354 154.803L55.3856 143.995L58.7595 143.788L60.9491 151.418L62.1728 143.58L65.744 143.361L67.9139 150.992L69.1574 143.152Z" fill="#151515"/>
<path d="M81.0451 149.971C81.5028 149.467 81.7051 148.782 81.652 147.914C81.5989 147.045 81.315 146.396 80.8001 145.965C80.2845 145.522 79.711 145.319 79.0796 145.358C78.4482 145.396 77.9037 145.667 77.446 146.171C76.9883 146.674 76.786 147.36 76.8391 148.228C76.8922 149.096 77.1765 149.752 77.6922 150.196C78.207 150.626 78.7801 150.822 79.4115 150.784C80.0428 150.745 80.5874 150.474 81.0451 149.971ZM75.1134 152.393C74.0757 151.4 73.5066 150.082 73.406 148.438C73.3054 146.793 73.7096 145.415 74.6186 144.304C75.5268 143.179 76.6781 142.574 78.0723 142.488C79.4798 142.402 80.5901 142.856 81.4034 143.849L81.3153 142.409L84.6892 142.202L85.3626 153.212L81.9887 153.418L81.891 151.82C81.1462 153.027 80.0899 153.673 78.7219 153.757C77.354 153.84 76.1511 153.386 75.1134 152.393Z" fill="#151515"/>
<path d="M86.2527 142.107L89.8436 141.887L92.8501 149.922L94.8551 141.581L98.446 141.361L95.2128 152.609L90.8326 152.877L86.2527 142.107Z" fill="#151515"/>
<path d="M105.362 152.127C103.757 152.225 102.411 151.793 101.322 150.83C100.232 149.853 99.6353 148.51 99.5307 146.8C99.4262 145.09 99.8493 143.698 100.8 142.623C101.764 141.548 103.055 140.96 104.673 140.861C106.291 140.762 107.663 141.18 108.79 142.115C109.916 143.049 110.534 144.404 110.642 146.18C110.666 146.561 110.661 146.918 110.629 147.25L103.052 147.714C103.148 148.196 103.389 148.584 103.777 148.877C104.164 149.157 104.568 149.284 104.989 149.259C105.423 149.232 105.743 149.173 105.948 149.081C106.153 148.976 106.299 148.882 106.386 148.797C106.486 148.698 106.609 148.546 106.754 148.339L110.404 148.116C110.156 149.24 109.58 150.173 108.674 150.915C107.768 151.643 106.664 152.048 105.362 152.127ZM107.067 145.349C106.983 144.839 106.734 144.439 106.32 144.147C105.905 143.842 105.428 143.707 104.889 143.74C104.349 143.773 103.906 143.965 103.557 144.316C103.208 144.654 103.004 145.083 102.943 145.601L107.067 145.349Z" fill="#151515"/>
<path d="M115.844 140.297L115.97 142.349C116.671 140.854 117.679 140.066 118.994 139.985L119.204 143.418L118.375 143.469C117.599 143.517 117.025 143.737 116.653 144.129C116.294 144.521 116.143 145.177 116.199 146.098L116.518 151.306L113.144 151.513L112.47 140.503L115.844 140.297Z" fill="#151515"/>
<path d="M123.835 138.561C123.476 138.965 123.021 139.185 122.469 139.218C121.916 139.252 121.438 139.09 121.033 138.732C120.628 138.374 120.409 137.918 120.375 137.366C120.34 136.8 120.502 136.315 120.86 135.91C121.218 135.506 121.674 135.286 122.226 135.253C122.779 135.219 123.257 135.381 123.662 135.739C124.067 136.097 124.287 136.559 124.321 137.125C124.355 137.677 124.193 138.156 123.835 138.561ZM121.506 151.001L120.833 139.992L124.207 139.785L124.88 150.795L121.506 151.001Z" fill="#151515"/>
<path d="M134.244 146.756C134.662 146.256 134.844 145.558 134.789 144.664C134.734 143.769 134.463 143.106 133.974 142.674C133.485 142.228 132.924 142.025 132.293 142.063C131.662 142.102 131.13 142.372 130.699 142.874C130.28 143.362 130.098 144.053 130.152 144.947C130.207 145.842 130.479 146.511 130.968 146.957C131.471 147.401 132.038 147.604 132.669 147.566C133.301 147.527 133.825 147.257 134.244 146.756ZM128.626 149.14C127.458 148.168 126.822 146.834 126.718 145.137C126.614 143.441 127.084 142.052 128.127 140.972C129.169 139.878 130.506 139.281 132.137 139.182C133.768 139.082 135.16 139.512 136.315 140.471C137.482 141.416 138.117 142.737 138.221 144.434C138.325 146.131 137.862 147.532 136.834 148.638C135.806 149.744 134.476 150.347 132.845 150.446C131.214 150.546 129.808 150.111 128.626 149.14Z" fill="#151515"/>
<path d="M218.819 129.694L219.787 128.599C221.689 126.45 224.984 126.198 227.145 128.087C227.964 128.805 228.538 129.761 228.785 130.822C229.033 131.882 228.942 132.993 228.525 133.999C228.325 134.48 228.281 135.011 228.397 135.518C228.514 136.026 228.786 136.484 229.176 136.829C229.809 136.111 230.295 135.275 230.606 134.369C230.917 133.463 231.046 132.505 230.986 131.549C230.926 130.593 230.679 129.658 230.257 128.798C229.836 127.938 229.25 127.169 228.531 126.536C225.509 123.877 220.888 124.216 218.22 127.231L208.988 137.666L208.131 136.907C205.944 134.973 205.725 131.606 207.698 129.454C208.428 128.66 209.387 128.112 210.442 127.886C211.497 127.66 212.597 127.767 213.588 128.192C214.041 128.39 214.545 128.44 215.028 128.335C215.511 128.229 215.948 127.974 216.278 127.605L216.301 127.579C216.308 127.571 216.314 127.561 216.318 127.551C216.321 127.54 216.323 127.529 216.322 127.518C216.321 127.507 216.319 127.496 216.314 127.487C216.309 127.477 216.302 127.468 216.294 127.461C214.86 126.224 213.001 125.594 211.11 125.703C209.22 125.813 207.446 126.654 206.165 128.048C203.404 131.059 203.703 135.767 206.762 138.474L217.194 147.703L216.214 148.811C214.312 150.961 211.016 151.213 208.856 149.323C208.037 148.606 207.463 147.649 207.216 146.589C206.968 145.529 207.059 144.418 207.476 143.412C207.675 142.931 207.72 142.4 207.604 141.893C207.487 141.385 207.215 140.927 206.825 140.582C206.192 141.3 205.706 142.136 205.395 143.042C205.084 143.948 204.955 144.906 205.015 145.862C205.075 146.818 205.322 147.752 205.744 148.612C206.165 149.473 206.751 150.241 207.47 150.875C210.492 153.534 215.113 153.195 217.781 150.18L227.025 139.731L227.886 140.493C230.035 142.395 230.287 145.69 228.398 147.851C227.68 148.67 226.724 149.243 225.663 149.491C224.603 149.738 223.492 149.647 222.486 149.231C222.005 149.031 221.474 148.986 220.966 149.103C220.459 149.22 220 149.492 219.655 149.882C220.373 150.516 221.209 151.002 222.115 151.312C223.021 151.623 223.979 151.752 224.935 151.692C225.891 151.632 226.826 151.385 227.686 150.964C228.546 150.542 229.315 149.956 229.948 149.238C232.607 146.215 232.268 141.594 229.253 138.927L218.819 129.694ZM218.572 146.145L210.547 139.044L217.44 131.253L225.466 138.353L218.572 146.145Z" fill="#151515"/>
<path d="M244.465 145.89C242.96 145.982 241.782 145.611 240.932 144.777C240.088 143.942 239.573 142.762 239.386 141.238L241.738 140.495C242.002 142.876 242.871 144.021 244.345 143.931C245.539 143.858 246.099 143.225 246.026 142.031C246.005 141.676 245.935 141.353 245.817 141.06C245.705 140.761 245.542 140.493 245.328 140.257C245.113 140.014 244.921 139.823 244.75 139.684C244.579 139.538 244.346 139.362 244.053 139.155L240.922 136.95C240.348 136.554 239.876 136.037 239.506 135.398C239.142 134.752 238.934 134.006 238.883 133.16C238.807 131.929 239.13 130.926 239.85 130.152C240.571 129.377 241.562 128.952 242.825 128.874C244.18 128.792 245.277 129.058 246.113 129.675C246.956 130.285 247.508 131.191 247.768 132.392C247.795 132.522 247.828 132.701 247.867 132.929L245.515 133.672C245.502 133.567 245.477 133.409 245.439 133.2C245.287 132.447 245.011 131.856 244.61 131.424C244.215 130.987 243.66 130.79 242.944 130.833C242.372 130.868 241.941 131.057 241.65 131.399C241.358 131.736 241.23 132.19 241.265 132.762C241.322 133.701 241.768 134.463 242.603 135.049L245.734 137.254C247.405 138.444 248.295 139.935 248.405 141.726C248.48 142.951 248.159 143.932 247.442 144.669C246.732 145.405 245.74 145.812 244.465 145.89Z" fill="#151515"/>
<path d="M253.515 143.37C254.143 143.332 254.73 143.134 255.276 142.776L254.824 135.388C254.798 135.377 254.734 135.343 254.631 135.287C254.527 135.231 254.453 135.195 254.409 135.179C254.37 135.156 254.302 135.123 254.206 135.079C254.11 135.035 254.03 135.006 253.966 134.991C253.909 134.969 253.833 134.949 253.738 134.93C253.649 134.904 253.561 134.888 253.473 134.88C253.391 134.873 253.304 134.872 253.211 134.878C253.012 134.89 252.837 134.947 252.687 135.05C252.543 135.146 252.426 135.26 252.334 135.39C252.242 135.521 252.165 135.703 252.105 135.938C252.051 136.172 252.013 136.38 251.993 136.563C251.973 136.739 251.962 136.977 251.962 137.276C251.961 137.57 251.963 137.797 251.966 137.959C251.976 138.121 251.99 138.348 252.008 138.64C252.009 138.653 252.009 138.662 252.01 138.668C252.016 138.774 252.027 138.945 252.041 139.181C252.056 139.418 252.069 139.645 252.083 139.862C252.096 140.08 252.109 140.285 252.12 140.478C252.152 140.894 252.193 141.26 252.244 141.575C252.3 141.884 252.378 142.188 252.477 142.488C252.583 142.781 252.721 143.007 252.893 143.165C253.071 143.316 253.278 143.385 253.515 143.37ZM255.634 148.634L255.35 143.979C255.018 144.368 254.669 144.689 254.304 144.942C253.945 145.195 253.522 145.336 253.037 145.366C252.577 145.394 252.16 145.304 251.785 145.096C251.416 144.881 251.111 144.597 250.871 144.244C250.637 143.89 250.434 143.468 250.26 142.979C250.093 142.484 249.966 141.996 249.88 141.514C249.801 141.032 249.745 140.53 249.713 140.007L249.602 138.188C249.569 137.647 249.564 137.151 249.586 136.701C249.608 136.25 249.672 135.803 249.776 135.359C249.88 134.916 250.028 134.539 250.221 134.227C250.42 133.909 250.692 133.649 251.035 133.447C251.378 133.239 251.783 133.121 252.249 133.092C252.517 133.076 252.768 133.098 253.002 133.158C253.243 133.212 253.474 133.31 253.695 133.453C253.922 133.595 254.098 133.722 254.223 133.833C254.355 133.937 254.533 134.095 254.758 134.306L254.685 133.112L257.073 132.965L258.022 148.488L255.634 148.634Z" fill="#151515"/>
<path d="M261.433 144.852C260.911 144.884 260.48 144.726 260.14 144.379C259.8 144.025 259.613 143.575 259.58 143.027L258.957 132.85L261.345 132.704L261.923 142.154C261.938 142.403 262.025 142.6 262.184 142.746C262.349 142.892 262.553 142.958 262.796 142.943C262.926 142.935 263.053 142.912 263.175 142.873C263.298 142.834 263.416 142.774 263.529 142.692C263.649 142.604 263.741 142.536 263.807 142.488C263.872 142.434 263.964 142.347 264.081 142.228C264.205 142.108 264.282 142.035 264.311 142.008L263.733 132.558L266.121 132.412L266.852 144.352L264.464 144.498L264.385 143.211C264.161 143.431 263.996 143.591 263.89 143.691C263.79 143.791 263.633 143.928 263.419 144.104C263.205 144.273 263.013 144.4 262.843 144.485C262.679 144.564 262.472 144.639 262.22 144.711C261.969 144.788 261.707 144.836 261.433 144.852Z" fill="#151515"/>
<path d="M272.097 142.234C272.265 142.224 272.423 142.164 272.573 142.055C272.728 141.945 272.844 141.842 272.919 141.743C272.994 141.645 273.086 141.515 273.194 141.352C273.211 141.32 273.225 141.297 273.237 141.284L273.035 137.982C272.94 138.056 272.781 138.172 272.56 138.329C272.339 138.486 272.162 138.616 272.031 138.717C271.9 138.813 271.743 138.947 271.56 139.121C271.377 139.288 271.237 139.449 271.14 139.605C271.043 139.755 270.961 139.938 270.893 140.154C270.825 140.37 270.798 140.594 270.812 140.824C270.872 141.812 271.301 142.282 272.097 142.234ZM271.022 144.266C270.357 144.306 269.774 144.055 269.272 143.511C268.777 142.961 268.507 142.325 268.463 141.604C268.427 141.026 268.492 140.494 268.655 140.01C268.825 139.525 269.011 139.136 269.211 138.843C269.412 138.544 269.757 138.229 270.249 137.899C270.74 137.563 271.113 137.331 271.368 137.204C271.622 137.076 272.065 136.864 272.696 136.57C272.805 136.519 272.887 136.48 272.941 136.452L272.889 135.594C272.852 134.99 272.74 134.529 272.552 134.21C272.363 133.884 272.039 133.736 271.579 133.764C271.168 133.789 270.881 133.95 270.719 134.247C270.562 134.537 270.486 134.932 270.491 135.431C270.489 135.5 270.493 135.603 270.501 135.74L268.113 135.886C268.055 134.741 268.32 133.81 268.907 133.094C269.493 132.377 270.346 131.985 271.466 131.917C272.579 131.849 273.474 132.14 274.15 132.792C274.833 133.437 275.208 134.322 275.277 135.448L275.606 140.821C275.682 142.064 275.845 143.053 276.096 143.787L273.717 143.932L273.291 142.161C273.182 142.417 273.091 142.616 273.018 142.758C272.952 142.899 272.85 143.077 272.714 143.292C272.577 143.5 272.437 143.664 272.295 143.785C272.152 143.9 271.971 144.005 271.752 144.099C271.533 144.194 271.29 144.249 271.022 144.266Z" fill="#151515"/>
<path d="M277.85 143.68L277.12 131.739L279.508 131.593L279.605 133.188C279.819 132.701 280.145 132.269 280.584 131.893C281.029 131.51 281.534 131.301 282.1 131.266C282.119 131.265 282.247 131.27 282.485 131.28L282.646 133.92C282.194 133.773 281.747 133.713 281.306 133.74C280.808 133.77 280.416 133.944 280.13 134.261C279.843 134.578 279.715 134.983 279.745 135.474L280.238 143.534L277.85 143.68Z" fill="#151515"/>
<path d="M287.618 143.251C287.039 143.286 286.529 143.217 286.088 143.045C285.653 142.872 285.298 142.634 285.024 142.333C284.755 142.024 284.528 141.626 284.342 141.138C284.156 140.644 284.017 140.15 283.924 139.657C283.837 139.156 283.767 138.574 283.714 137.909C283.663 137.388 283.632 136.865 283.618 136.342C283.599 135.719 283.606 135.166 283.639 134.683C283.677 134.194 283.764 133.718 283.898 133.254C284.031 132.79 284.217 132.404 284.454 132.096C284.697 131.788 285.022 131.534 285.428 131.334C285.84 131.128 286.326 131.008 286.885 130.974C287.395 130.942 287.847 130.983 288.241 131.097C288.641 131.203 288.977 131.386 289.248 131.644C289.526 131.895 289.759 132.18 289.947 132.5C290.141 132.819 290.296 133.212 290.412 133.679C290.528 134.14 290.615 134.597 290.674 135.049C290.739 135.501 290.79 136.022 290.826 136.613L290.843 136.893L286.067 137.185L286.103 137.782C286.108 137.862 286.116 137.99 286.127 138.164C286.128 138.395 286.14 138.635 286.161 138.883C286.189 139.125 286.216 139.363 286.243 139.599C286.269 139.835 286.318 140.059 286.387 140.274C286.456 140.482 286.536 140.664 286.626 140.821C286.717 140.978 286.837 141.098 286.985 141.183C287.14 141.267 287.317 141.303 287.516 141.291C287.765 141.275 287.968 141.216 288.124 141.113C288.279 141.004 288.388 140.85 288.451 140.653C288.52 140.455 288.564 140.259 288.584 140.064C288.603 139.87 288.607 139.626 288.595 139.333L288.564 138.83L290.934 138.685L290.963 139.16C290.985 140.439 290.73 141.422 290.198 142.11C289.665 142.798 288.805 143.178 287.618 143.251ZM285.994 135.991L288.363 135.846L288.319 135.127C288.294 134.811 288.258 134.535 288.212 134.301C288.167 134.066 288.096 133.833 288.001 133.602C287.912 133.37 287.783 133.197 287.614 133.083C287.444 132.968 287.242 132.918 287.005 132.933C286.763 132.947 286.561 133.025 286.402 133.166C286.248 133.307 286.138 133.504 286.072 133.757C286.013 134.004 285.974 134.247 285.958 134.485C285.941 134.724 285.94 135.008 285.954 135.338L285.994 135.991Z" fill="#151515"/>
<path d="M297.412 142.652C295.907 142.744 294.73 142.373 293.88 141.538C293.036 140.703 292.521 139.524 292.334 138L294.685 137.257C294.95 139.638 295.819 140.783 297.293 140.693C298.487 140.62 299.047 139.986 298.974 138.792C298.952 138.438 298.883 138.114 298.765 137.822C298.653 137.523 298.49 137.255 298.276 137.018C298.061 136.776 297.868 136.585 297.698 136.445C297.526 136.3 297.294 136.123 297 135.917L293.869 133.711C293.296 133.316 292.824 132.798 292.454 132.159C292.09 131.514 291.882 130.768 291.83 129.922C291.755 128.691 292.078 127.688 292.798 126.913C293.518 126.139 294.51 125.713 295.772 125.636C297.128 125.553 298.224 125.82 299.061 126.437C299.904 127.047 300.455 127.953 300.716 129.154C300.743 129.283 300.775 129.462 300.814 129.691L298.463 130.434C298.45 130.329 298.425 130.171 298.387 129.961C298.235 129.209 297.958 128.617 297.558 128.186C297.162 127.748 296.607 127.551 295.892 127.595C295.32 127.63 294.888 127.819 294.597 128.161C294.306 128.497 294.177 128.951 294.212 129.524C294.27 130.463 294.716 131.225 295.551 131.811L298.682 134.016C300.353 135.206 301.243 136.696 301.352 138.488C301.427 139.713 301.107 140.694 300.39 141.43C299.68 142.167 298.687 142.574 297.412 142.652Z" fill="#151515"/>
<path d="M306.545 142.093C305.606 142.151 304.907 141.953 304.449 141.5C303.996 141.047 303.734 140.336 303.663 139.367L303.209 131.941L302.014 132.014L301.905 130.223L303.099 130.15L302.843 125.971L305.231 125.825L305.487 130.004L307.278 129.895L307.388 131.686L305.597 131.795L306.023 138.764C306.052 139.243 306.139 139.59 306.283 139.806C306.427 140.022 306.699 140.117 307.097 140.093C307.271 140.082 307.536 140.035 307.893 139.951L308.012 141.891C307.419 142.002 306.93 142.07 306.545 142.093Z" fill="#151515"/>
<path d="M315.73 140.408C315.222 141.188 314.328 141.617 313.047 141.695C311.766 141.774 310.825 141.457 310.226 140.744C309.627 140.032 309.285 138.973 309.199 137.568L308.98 133.985C308.894 132.58 309.105 131.487 309.612 130.707C310.12 129.927 311.015 129.498 312.296 129.419C313.577 129.341 314.517 129.658 315.116 130.37C315.715 131.083 316.058 132.142 316.144 133.547L316.363 137.129C316.449 138.535 316.238 139.628 315.73 140.408ZM312.474 139.689C312.608 139.731 312.759 139.747 312.927 139.737C313.095 139.726 313.239 139.692 313.361 139.635C313.488 139.577 313.59 139.512 313.667 139.438C313.75 139.359 313.815 139.248 313.862 139.108C313.909 138.962 313.945 138.835 313.97 138.727C313.995 138.619 314.007 138.466 314.007 138.266C314.008 138.066 314.004 137.91 313.997 137.798C313.996 137.68 313.989 137.506 313.975 137.275L313.756 133.693C313.742 133.463 313.728 133.292 313.715 133.181C313.708 133.063 313.692 132.905 313.667 132.706C313.643 132.508 313.612 132.357 313.574 132.253C313.536 132.149 313.485 132.031 313.421 131.897C313.356 131.758 313.278 131.656 313.187 131.593C313.102 131.524 312.992 131.468 312.859 131.426C312.731 131.384 312.584 131.368 312.416 131.378C312.248 131.389 312.1 131.423 311.972 131.48C311.851 131.538 311.749 131.606 311.667 131.686C311.59 131.76 311.528 131.87 311.481 132.016C311.433 132.156 311.397 132.28 311.372 132.388C311.348 132.495 311.335 132.649 311.335 132.849C311.335 133.049 311.335 133.208 311.336 133.326C311.343 133.438 311.354 133.609 311.368 133.839L311.587 137.422C311.601 137.652 311.611 137.826 311.619 137.944C311.632 138.055 311.651 138.21 311.675 138.409C311.7 138.607 311.731 138.758 311.768 138.862C311.806 138.966 311.857 139.087 311.922 139.227C311.986 139.36 312.061 139.462 312.146 139.531C312.238 139.595 312.347 139.647 312.474 139.689Z" fill="#151515"/>
<path d="M318.577 141.189L317.847 129.248L320.235 129.102L320.314 130.39C320.649 130.045 320.923 129.781 321.136 129.6C321.35 129.412 321.648 129.231 322.03 129.058C322.419 128.878 322.837 128.775 323.285 128.747C323.795 128.716 324.219 128.877 324.559 129.231C324.899 129.585 325.086 130.032 325.119 130.573L325.742 140.75L323.354 140.897L322.806 131.941C322.78 131.525 322.703 131.227 322.573 131.047C322.443 130.862 322.198 130.78 321.837 130.802C321.632 130.815 321.429 130.871 321.23 130.97C321.035 131.063 320.891 131.15 320.796 131.231C320.701 131.305 320.565 131.426 320.387 131.593L320.965 141.043L318.577 141.189Z" fill="#151515"/>
<path d="M331.218 140.584C330.64 140.619 330.13 140.551 329.689 140.378C329.254 140.205 328.899 139.967 328.625 139.666C328.356 139.358 328.129 138.96 327.943 138.472C327.757 137.977 327.617 137.483 327.525 136.99C327.438 136.489 327.368 135.907 327.315 135.242C327.264 134.721 327.232 134.199 327.219 133.675C327.2 133.052 327.206 132.499 327.239 132.017C327.278 131.527 327.364 131.051 327.498 130.587C327.632 130.123 327.818 129.737 328.055 129.429C328.298 129.121 328.623 128.867 329.029 128.667C329.441 128.461 329.926 128.341 330.486 128.307C330.996 128.276 331.448 128.317 331.842 128.43C332.242 128.537 332.577 128.719 332.849 128.977C333.127 129.228 333.359 129.514 333.548 129.833C333.742 130.152 333.897 130.545 334.013 131.012C334.129 131.474 334.216 131.93 334.275 132.382C334.34 132.834 334.39 133.355 334.426 133.946L334.444 134.226L329.667 134.518L329.704 135.115C329.709 135.196 329.717 135.323 329.727 135.497C329.729 135.728 329.741 135.968 329.762 136.216C329.789 136.458 329.816 136.697 329.843 136.932C329.87 137.168 329.918 137.393 329.987 137.607C330.056 137.815 330.136 137.997 330.227 138.154C330.318 138.311 330.437 138.431 330.586 138.516C330.741 138.6 330.918 138.636 331.117 138.624C331.366 138.609 331.568 138.55 331.724 138.446C331.88 138.337 331.989 138.184 332.052 137.986C332.121 137.789 332.165 137.592 332.184 137.398C332.204 137.203 332.208 136.959 332.196 136.667L332.165 136.163L334.534 136.018L334.564 136.494C334.586 137.772 334.33 138.755 333.798 139.443C333.266 140.131 332.406 140.511 331.218 140.584ZM329.594 133.324L331.964 133.179L331.92 132.461C331.894 132.144 331.859 131.868 331.813 131.634C331.768 131.399 331.697 131.167 331.602 130.935C331.513 130.703 331.384 130.53 331.214 130.416C331.045 130.301 330.842 130.251 330.606 130.266C330.363 130.281 330.162 130.358 330.002 130.499C329.848 130.64 329.739 130.837 329.673 131.091C329.613 131.338 329.575 131.58 329.559 131.819C329.542 132.057 329.541 132.341 329.554 132.671L329.594 133.324Z" fill="#151515"/>
<path d="M519.145 126.121C518.727 125.708 518.365 125.241 518.069 124.733C517.602 123.935 516.981 123.24 516.243 122.688C515.506 122.136 514.666 121.738 513.773 121.517C512.993 121.326 512.185 121.273 511.387 121.363C511.967 121.294 512.553 121.448 513.026 121.795C513.498 122.142 513.824 122.656 513.936 123.235C514.224 124.481 514.85 125.623 515.744 126.532C516.639 127.441 517.766 128.082 519.001 128.384C520.413 128.728 521.896 128.614 523.239 128.058C521.696 127.901 520.251 127.217 519.145 126.121Z" fill="#151515"/>
<path d="M508.995 121.384C509.22 122.151 509.579 122.872 510.055 123.516C509.708 123.049 509.55 122.469 509.612 121.891C509.674 121.313 509.952 120.78 510.391 120.395C511.321 119.531 511.991 118.429 512.327 117.21C512.663 115.991 512.652 114.704 512.295 113.492C511.887 112.105 511.045 110.883 509.891 110.003C510.525 111.417 510.654 113.004 510.256 114.501C510.103 115.067 509.875 115.61 509.579 116.116C509.126 116.911 508.837 117.788 508.731 118.695C508.625 119.603 508.703 120.522 508.96 121.398L508.995 121.384Z" fill="#151515"/>
<path d="M512.574 123.883C512.347 124.421 511.928 124.853 511.401 125.09C510.873 125.328 510.276 125.354 509.73 125.163C508.528 124.788 507.249 124.759 506.034 125.08C504.818 125.401 503.716 126.059 502.849 126.981C501.861 128.036 501.229 129.384 501.044 130.829C501.946 129.566 503.246 128.654 504.73 128.244C505.287 128.092 505.861 128.011 506.438 128.004C507.344 127.996 508.238 127.804 509.069 127.439C509.9 127.074 510.65 126.544 511.275 125.88C511.822 125.296 512.264 124.62 512.582 123.882L512.574 123.883Z" fill="#151515"/>
<path d="M401.31 136.838L404.582 136.638L404.095 128.671C404.041 127.788 404.239 127.066 404.689 126.503C405.139 125.941 405.756 125.636 406.538 125.588C407.338 125.539 407.987 125.767 408.485 126.271C409 126.758 409.284 127.451 409.339 128.35L409.827 136.317L413.098 136.117L412.611 128.15C412.557 127.267 412.755 126.545 413.206 125.983C413.656 125.42 414.272 125.115 415.055 125.067C415.854 125.018 416.503 125.246 417.002 125.75C417.516 126.237 417.801 126.93 417.856 127.829L418.343 135.796L421.615 135.596L421.08 126.855C421.018 125.839 420.739 124.962 420.242 124.224C419.762 123.468 419.133 122.896 418.358 122.509C417.582 122.122 416.711 121.958 415.746 122.017C414.846 122.072 414.042 122.305 413.332 122.716C412.638 123.126 412.081 123.712 411.659 124.473C411.219 123.831 410.612 123.334 409.838 122.98C409.081 122.625 408.245 122.476 407.329 122.532C406.48 122.584 405.733 122.796 405.087 123.17C404.441 123.544 403.964 124.074 403.655 124.762L403.551 123.064L400.479 123.251L401.31 136.838Z" fill="#151515"/>
<path d="M428.522 135.474C430.287 135.366 431.666 134.697 432.661 133.466L432.749 134.915L435.846 134.725L435.293 125.685C435.235 124.735 434.942 123.909 434.415 123.206C433.887 122.503 433.186 121.978 432.313 121.63C431.455 121.265 430.468 121.116 429.352 121.185C427.987 121.268 426.792 121.667 425.766 122.382C424.74 123.096 424.06 123.998 423.725 125.088L426.477 126.224C426.689 125.592 427.05 125.077 427.561 124.678C428.07 124.263 428.683 124.033 429.399 123.989C430.148 123.944 430.76 124.107 431.234 124.479C431.723 124.833 431.986 125.302 432.021 125.885L432.049 126.334L428.043 127.231C426.461 127.595 425.31 128.175 424.589 128.971C423.869 129.767 423.544 130.732 423.613 131.864C423.687 133.063 424.169 133.986 425.061 134.633C425.953 135.28 427.107 135.561 428.522 135.474ZM427.002 131.531C426.944 130.582 427.548 129.943 428.815 129.615L432.202 128.832L432.235 129.381C432.292 130.313 432.016 131.124 431.406 131.813C430.813 132.501 430.001 132.877 428.968 132.94C428.419 132.974 427.961 132.868 427.595 132.623C427.228 132.361 427.031 131.997 427.002 131.531Z" fill="#151515"/>
<path d="M438.87 134.54L442.142 134.34L441.679 126.773C441.616 125.741 441.85 124.924 442.381 124.323C442.928 123.705 443.66 123.368 444.576 123.312L445.749 123.24L445.572 120.343L444.773 120.392C443.94 120.443 443.217 120.637 442.603 120.976C441.988 121.314 441.53 121.885 441.228 122.689L441.111 120.766L438.039 120.954L438.87 134.54Z" fill="#151515"/>
<path d="M454.78 133.718C455.329 133.684 455.868 133.609 456.395 133.494L456.223 130.671C455.91 130.741 455.62 130.784 455.353 130.8C454.554 130.849 453.96 130.701 453.571 130.357C453.183 130.013 452.968 129.5 452.926 128.817L452.57 122.998L455.692 122.807L455.513 119.885L452.391 120.076L452.202 116.979L448.93 117.18L448.994 118.229C449.035 118.895 448.883 119.414 448.538 119.786C448.193 120.158 447.688 120.364 447.022 120.405L446.772 120.42L446.951 123.342L449.298 123.198L449.665 129.192C449.757 130.708 450.246 131.864 451.13 132.662C452.032 133.46 453.248 133.811 454.78 133.718Z" fill="#151515"/>
<path d="M457.969 118.206L461.241 118.006L461.027 114.509L457.756 114.71L457.969 118.206ZM458.894 133.316L462.165 133.116L461.334 119.529L458.063 119.729L458.894 133.316Z" fill="#151515"/>
<path d="M465.186 132.931L468.458 132.731L467.97 124.764C467.916 123.881 468.123 123.158 468.59 122.595C469.073 122.031 469.723 121.724 470.539 121.674C471.355 121.624 472.029 121.85 472.561 122.352C473.108 122.837 473.41 123.529 473.465 124.428L473.952 132.395L477.224 132.195L476.689 123.453C476.627 122.438 476.356 121.56 475.876 120.821C475.396 120.065 474.751 119.494 473.942 119.109C473.149 118.723 472.254 118.561 471.255 118.622C470.406 118.674 469.65 118.887 468.988 119.262C468.342 119.636 467.856 120.158 467.529 120.83L467.427 119.157L464.355 119.345L465.186 132.931Z" fill="#151515"/>
<path d="M486.652 131.919C487.967 131.838 489.148 131.465 490.193 130.8C491.238 130.117 492.052 129.224 492.636 128.118C493.219 126.996 493.469 125.753 493.386 124.388C493.302 123.022 492.903 121.827 492.189 120.801C491.491 119.774 490.582 118.986 489.462 118.436C488.342 117.886 487.116 117.652 485.784 117.733C484.436 117.816 483.239 118.198 482.194 118.88C481.15 119.562 480.336 120.456 479.751 121.562C479.184 122.666 478.942 123.901 479.025 125.266C479.109 126.631 479.5 127.827 480.197 128.854C480.912 129.88 481.829 130.668 482.949 131.218C484.086 131.767 485.32 132 486.652 131.919ZM486.469 128.922C485.736 128.967 485.068 128.832 484.464 128.518C483.876 128.203 483.397 127.748 483.026 127.152C482.671 126.539 482.47 125.841 482.422 125.058C482.374 124.276 482.489 123.567 482.768 122.931C483.063 122.295 483.483 121.784 484.028 121.4C484.589 120.998 485.235 120.775 485.968 120.73C486.7 120.685 487.352 120.829 487.924 121.162C488.512 121.477 488.982 121.933 489.336 122.529C489.707 123.125 489.916 123.814 489.964 124.597C490.012 125.379 489.889 126.097 489.595 126.75C489.316 127.386 488.904 127.895 488.36 128.28C487.832 128.663 487.201 128.877 486.469 128.922Z" fill="#151515"/>
<path d="M592.628 108.096L594.18 108.757C594.465 108.861 594.77 108.897 595.071 108.862C595.372 108.827 595.661 108.723 595.914 108.556L597.281 107.543C597.515 107.35 597.7 107.105 597.821 106.827C597.942 106.549 597.995 106.246 597.976 105.943L597.782 104.251C597.731 103.953 597.61 103.671 597.43 103.428C597.25 103.185 597.015 102.987 596.744 102.852L595.191 102.172C594.907 102.066 594.602 102.029 594.301 102.063C593.999 102.098 593.71 102.202 593.457 102.369L592.091 103.382C591.857 103.575 591.672 103.821 591.551 104.099C591.43 104.377 591.377 104.679 591.395 104.982L591.589 106.674C591.637 106.977 591.756 107.263 591.937 107.511C592.117 107.758 592.355 107.958 592.628 108.096Z" fill="#151515"/>
<path d="M601.847 109.739L600.294 109.059C600.01 108.955 599.706 108.919 599.405 108.954C599.105 108.988 598.817 109.093 598.564 109.259L597.182 110.273C596.95 110.467 596.766 110.713 596.645 110.991C596.524 111.268 596.47 111.571 596.487 111.873L596.681 113.566C596.732 113.864 596.853 114.146 597.033 114.389C597.213 114.632 597.448 114.829 597.719 114.965L599.271 115.625C599.554 115.731 599.859 115.768 600.159 115.734C600.46 115.7 600.748 115.595 601.001 115.429L602.371 114.415C602.604 114.221 602.788 113.974 602.909 113.696C603.029 113.418 603.084 113.115 603.067 112.812L602.873 111.123C602.82 110.829 602.7 110.551 602.522 110.311C602.344 110.071 602.113 109.875 601.847 109.739Z" fill="#151515"/>
<path d="M606.932 116.616L605.38 115.955C605.096 115.849 604.791 115.812 604.489 115.846C604.188 115.881 603.899 115.985 603.646 116.152L602.279 117.165C602.046 117.359 601.862 117.604 601.741 117.882C601.62 118.16 601.566 118.462 601.584 118.765L601.778 120.457C601.832 120.75 601.953 121.027 602.131 121.266C602.31 121.505 602.541 121.699 602.807 121.834L604.359 122.495C604.644 122.599 604.949 122.635 605.25 122.6C605.551 122.566 605.839 122.461 606.093 122.294L607.463 121.281C607.696 121.087 607.88 120.842 608 120.564C608.12 120.286 608.173 119.984 608.155 119.682L607.974 118.019C607.923 117.719 607.802 117.436 607.621 117.192C607.44 116.949 607.204 116.751 606.932 116.616Z" fill="#151515"/>
<path d="M595.578 113.077L595.426 111.76C595.409 111.458 595.463 111.156 595.584 110.878C595.705 110.6 595.889 110.355 596.122 110.161L598.786 108.188C599.039 108.021 599.327 107.917 599.627 107.882C599.928 107.847 600.232 107.883 600.516 107.987L601.735 108.517C602.019 108.623 602.324 108.66 602.626 108.626C602.927 108.592 603.216 108.487 603.469 108.321L604.836 107.304C605.069 107.11 605.253 106.865 605.374 106.587C605.495 106.309 605.549 106.007 605.531 105.704L605.337 104.015C605.287 103.716 605.166 103.434 604.986 103.19C604.805 102.946 604.57 102.748 604.299 102.612L602.746 101.933C602.461 101.829 602.156 101.793 601.855 101.827C601.554 101.862 601.266 101.967 601.012 102.133L599.615 103.133C599.382 103.327 599.198 103.572 599.078 103.85C598.957 104.128 598.904 104.43 598.923 104.733L599.071 106.05C599.09 106.352 599.036 106.654 598.916 106.932C598.796 107.21 598.612 107.456 598.379 107.649L595.715 109.623C595.461 109.789 595.172 109.894 594.871 109.928C594.57 109.962 594.265 109.925 593.981 109.819L592.766 109.293C592.481 109.187 592.176 109.15 591.875 109.184C591.574 109.218 591.285 109.323 591.032 109.489L589.665 110.503C589.432 110.696 589.247 110.941 589.126 111.219C589.005 111.497 588.951 111.8 588.969 112.102L589.164 113.795C589.214 114.094 589.334 114.377 589.515 114.62C589.695 114.864 589.931 115.062 590.202 115.198L591.754 115.859C592.038 115.963 592.343 115.999 592.644 115.964C592.945 115.929 593.234 115.824 593.488 115.658L594.854 114.645C595.088 114.458 595.275 114.219 595.401 113.947C595.527 113.675 595.587 113.377 595.578 113.077Z" fill="#151515"/>
<path d="M610.406 110.893C610.354 110.595 610.233 110.313 610.053 110.069C609.873 109.826 609.638 109.627 609.368 109.491L607.816 108.83C607.531 108.726 607.226 108.69 606.925 108.725C606.624 108.76 606.336 108.864 606.082 109.03L604.716 110.043C604.482 110.237 604.298 110.483 604.177 110.76C604.056 111.038 604.002 111.341 604.02 111.643L604.172 112.964C604.19 113.266 604.136 113.569 604.015 113.847C603.894 114.124 603.71 114.37 603.477 114.564L600.816 116.533C600.562 116.699 600.274 116.804 599.972 116.839C599.671 116.873 599.366 116.837 599.082 116.733L597.863 116.203C597.579 116.099 597.274 116.063 596.974 116.098C596.674 116.132 596.385 116.237 596.133 116.403L594.751 117.414C594.518 117.608 594.334 117.853 594.213 118.131C594.093 118.409 594.038 118.711 594.055 119.013L594.249 120.706C594.301 121.004 594.421 121.286 594.602 121.529C594.782 121.772 595.017 121.969 595.287 122.105L596.841 122.785C597.124 122.89 597.429 122.927 597.729 122.893C598.03 122.859 598.318 122.755 598.571 122.588L599.941 121.575C600.173 121.381 600.357 121.135 600.478 120.857C600.599 120.579 600.653 120.277 600.637 119.975L600.484 118.654C600.467 118.352 600.52 118.049 600.641 117.771C600.762 117.493 600.947 117.248 601.18 117.055L603.841 115.082C604.094 114.915 604.383 114.81 604.684 114.776C604.986 114.742 605.291 114.779 605.575 114.885L606.79 115.411C607.074 115.517 607.379 115.554 607.68 115.52C607.982 115.486 608.27 115.381 608.524 115.215L609.894 114.201C610.127 114.007 610.311 113.762 610.431 113.484C610.551 113.206 610.604 112.904 610.586 112.602L610.406 110.893Z" fill="#151515"/>
<path d="M615.047 103.797L620.691 103.451L623.994 114.004L625.986 103.128L631.88 102.767L627.562 120.278L621.193 120.668L615.047 103.797Z" fill="#151515"/>
<path d="M638.485 119.811C637.086 119.896 635.968 119.513 635.13 118.662C634.293 117.811 633.827 116.611 633.732 115.063L633.262 107.37L638.556 107.047L639.013 114.514C639.036 114.897 639.155 115.191 639.368 115.395C639.596 115.581 639.877 115.664 640.21 115.644C640.543 115.624 640.878 115.503 641.216 115.282L641.703 118.736C641.354 119.042 640.884 119.288 640.294 119.474C639.72 119.66 639.117 119.772 638.485 119.811ZM635.794 105.335C635.012 105.383 634.331 105.183 633.752 104.733C633.189 104.266 632.885 103.675 632.841 102.959C632.798 102.243 633.044 101.626 633.58 101.109C634.117 100.591 634.752 100.31 635.484 100.266C636.25 100.219 636.923 100.428 637.503 100.894C638.1 101.359 638.419 101.933 638.461 102.615C638.505 103.348 638.26 103.973 637.723 104.49C637.186 105.008 636.544 105.29 635.794 105.335Z" fill="#151515"/>
<path d="M642.444 106.984L647.713 106.662L647.869 109.209C648.192 108.204 648.664 107.448 649.285 106.942C649.921 106.418 650.681 106.13 651.563 106.076L652.536 110.102C650.955 110.199 649.8 110.445 649.072 110.84C648.36 111.218 648.026 111.773 648.071 112.506L648.468 118.999L643.198 119.322L642.444 106.984Z" fill="#151515"/>
<path d="M660.925 118.438C659.526 118.524 658.261 118.325 657.128 117.843C656.012 117.36 655.117 116.654 654.442 115.726C653.782 114.78 653.414 113.675 653.337 112.41C653.259 111.144 653.499 110.01 654.056 109.006C654.612 107.986 655.415 107.177 656.464 106.578C657.531 105.978 658.763 105.635 660.162 105.55C661.577 105.463 662.842 105.661 663.958 106.145C665.09 106.61 665.985 107.308 666.643 108.237C667.302 109.166 667.67 110.263 667.747 111.528C667.825 112.81 667.587 113.961 667.031 114.981C666.49 115.984 665.687 116.793 664.622 117.41C663.573 118.009 662.34 118.352 660.925 118.438ZM660.746 114.689C661.428 114.647 661.971 114.363 662.373 113.837C662.791 113.294 662.976 112.622 662.927 111.823C662.878 111.024 662.613 110.388 662.133 109.916C661.669 109.427 661.095 109.203 660.413 109.244C659.73 109.286 659.18 109.579 658.762 110.122C658.359 110.648 658.183 111.311 658.232 112.11C658.28 112.909 658.537 113.554 659.002 114.043C659.482 114.515 660.063 114.731 660.746 114.689Z" fill="#151515"/>
<path d="M677.42 122.969C676.504 123.025 675.624 122.987 674.781 122.855L674.954 119.134C675.61 119.194 676.212 119.208 676.762 119.174C677.794 119.111 678.558 118.755 679.053 118.106C679.549 117.474 679.803 116.439 679.815 115.001C678.918 116.444 677.461 117.226 675.447 117.349C674.348 117.417 673.315 117.196 672.348 116.687C671.398 116.176 670.618 115.455 670.01 114.523C669.418 113.59 669.087 112.549 669.016 111.4C668.945 110.235 669.146 109.153 669.62 108.155C670.093 107.14 670.77 106.321 671.651 105.699C672.549 105.076 673.547 104.731 674.646 104.664C675.661 104.602 676.56 104.814 677.342 105.301C678.139 105.77 678.682 106.439 678.969 107.307L678.792 104.41L684.061 104.088L684.643 113.603C684.821 116.517 684.29 118.764 683.05 120.344C681.827 121.939 679.951 122.814 677.42 122.969ZM676.841 113.504C677.507 113.463 678.067 113.195 678.521 112.699C678.975 112.187 679.198 111.605 679.192 110.954L679.18 110.754C679.108 110.123 678.807 109.582 678.278 109.129C677.766 108.676 677.185 108.469 676.535 108.509C675.853 108.551 675.285 108.836 674.833 109.365C674.38 109.877 674.174 110.475 674.216 111.158C674.257 111.84 674.535 112.417 675.048 112.887C675.561 113.34 676.158 113.546 676.841 113.504Z" fill="#151515"/>
<path d="M692.899 116.482C691.817 116.549 690.784 116.328 689.8 115.82C688.832 115.294 688.035 114.557 687.409 113.61C686.782 112.645 686.431 111.555 686.357 110.34C686.283 109.141 686.5 108.042 687.007 107.041C687.513 106.024 688.224 105.212 689.139 104.605C690.055 103.997 691.045 103.661 692.111 103.596C692.977 103.543 693.791 103.735 694.553 104.173C695.332 104.61 695.942 105.3 696.384 106.242L696.207 103.345L701.451 103.024L702.227 115.711L696.983 116.032L696.841 113.709C696.111 115.442 694.797 116.366 692.899 116.482ZM694.281 112.437C694.947 112.396 695.499 112.129 695.937 111.634C696.39 111.122 696.613 110.54 696.607 109.888L696.595 109.689C696.521 109.025 696.22 108.475 695.692 108.039C695.18 107.603 694.608 107.404 693.976 107.442C693.276 107.485 692.692 107.771 692.223 108.301C691.77 108.814 691.564 109.411 691.606 110.094C691.649 110.793 691.935 111.369 692.464 111.821C692.993 112.274 693.598 112.479 694.281 112.437Z" fill="#151515"/>
<path d="M704.002 103.219L709.022 102.912L709.178 105.46C710.026 103.469 711.498 102.41 713.596 102.281C715.195 102.184 716.479 102.682 717.448 103.776C718.433 104.852 718.987 106.397 719.11 108.412L719.492 114.655L714.247 114.976L713.833 108.208C713.79 107.492 713.598 106.952 713.258 106.589C712.935 106.224 712.499 106.059 711.949 106.092C711.55 106.117 711.167 106.274 710.8 106.564C710.432 106.837 710.138 107.222 709.918 107.721C709.715 108.218 709.632 108.774 709.669 109.39L710.027 115.234L704.757 115.557L704.002 103.219Z" fill="#151515"/>
</svg>
