<svg width="1440" height="214" viewBox="0 0 1440 214" fill="none" xmlns="http://www.w3.org/2000/svg">
<foreignObject x="-297" y="-24" width="1919.62" height="261.913"><div xmlns="http://www.w3.org/1999/xhtml" style="backdrop-filter:blur(12px);clip-path:url(#bgblur_0_13_2127_clip_path);height:100%;width:100%"></div></foreignObject><rect data-figma-bg-blur-radius="24" x="-266.895" width="1869" height="100" transform="rotate(3.5 -266.895 0)" fill="#151515" fill-opacity="0.15"/>
<path d="M732.372 107.143L735.556 105.558L734.021 102.481L750.164 103.469L741.24 116.956L739.705 113.874L736.522 115.465L740.806 124.055L756.531 100.293L728.088 98.553L732.372 107.143Z" fill="white"/>
<path d="M768.059 121.191L775.089 106.998L772.155 106.819L767.179 117.127L763.476 106.288L760.542 106.109L765.79 121.053L768.059 121.191Z" fill="white"/>
<path d="M778.561 107.211L777.67 121.779L788.513 122.442L788.671 119.862L780.616 119.369L780.83 115.873L787.636 116.289L787.794 113.708L780.988 113.292L781.192 109.962L789.142 110.448L789.3 107.868L778.561 107.211Z" fill="white"/>
<path d="M793.406 108.119L792.515 122.687L795.303 122.858L795.618 117.717L799.01 117.925L801.755 123.252L804.856 123.442L801.87 117.619C803.602 116.973 804.782 115.437 804.898 113.543C804.979 112.211 804.569 111.058 803.646 110.103C802.743 109.149 801.585 108.619 800.149 108.531L793.406 108.119ZM799.991 111.112C801.219 111.187 802.059 112.137 801.984 113.365C801.909 114.592 800.958 115.453 799.73 115.378L795.776 115.136L796.037 110.87L799.991 111.112Z" fill="white"/>
<path d="M813.047 111.91L812.314 123.898L815.123 124.07L815.857 112.082L820.685 112.378L820.843 109.797L808.376 109.034L808.218 111.615L813.047 111.91Z" fill="white"/>
<path d="M824.64 110.029L823.749 124.598L834.592 125.261L834.75 122.68L826.696 122.188L826.91 118.691L833.715 119.107L833.873 116.527L827.068 116.11L827.271 112.78L835.221 113.267L835.379 110.686L824.64 110.029Z" fill="white"/>
<path d="M843.44 118.344L837.574 125.443L840.925 125.648L844.965 120.735L848.376 126.104L851.706 126.308L846.77 118.548L852.389 111.726L849.059 111.523L845.245 116.157L842.024 111.092L838.674 110.887L843.44 118.344Z" fill="white"/>
<path d="M940.028 131.216C939.867 130.922 939.65 130.663 939.388 130.454C939.126 130.244 938.824 130.09 938.502 129.998C937.269 129.631 936.232 128.791 935.617 127.661C935.002 126.531 934.859 125.204 935.219 123.969C935.358 123.492 935.353 122.984 935.204 122.51C935.055 122.035 934.77 121.616 934.383 121.303C933.997 120.991 933.526 120.8 933.031 120.753C932.536 120.707 932.039 120.809 931.601 121.044C931.164 121.28 930.806 121.64 930.572 122.079C930.338 122.517 930.239 123.015 930.287 123.51C930.336 124.005 930.529 124.474 930.843 124.859C931.157 125.244 931.578 125.528 932.053 125.675C932.668 125.853 933.242 126.152 933.742 126.553C934.241 126.954 934.657 127.45 934.964 128.011C935.272 128.573 935.465 129.19 935.534 129.827C935.603 130.464 935.545 131.108 935.364 131.723C935.255 132.119 935.245 132.536 935.334 132.938C935.423 133.34 935.609 133.713 935.876 134.026C936.143 134.34 936.482 134.583 936.864 134.735C937.246 134.887 937.66 134.943 938.069 134.899C938.477 134.854 938.869 134.71 939.21 134.48C939.551 134.249 939.83 133.939 940.023 133.576C940.216 133.213 940.317 132.808 940.318 132.397C940.319 131.985 940.22 131.58 940.028 131.216Z" fill="white"/>
<path d="M924.721 127.475C925.146 127.742 925.642 127.876 926.144 127.86C926.647 127.843 927.133 127.677 927.54 127.382C927.947 127.088 928.257 126.678 928.43 126.206C928.603 125.734 928.631 125.221 928.51 124.733C928.357 124.111 928.329 123.465 928.426 122.832C928.524 122.199 928.745 121.591 929.078 121.044C929.411 120.496 929.848 120.02 930.366 119.642C930.883 119.264 931.47 118.992 932.092 118.842C932.575 118.722 933.012 118.462 933.348 118.095C933.684 117.728 933.903 117.27 933.979 116.778C934.055 116.286 933.984 115.783 933.774 115.332C933.565 114.88 933.227 114.501 932.802 114.241C932.378 113.982 931.886 113.854 931.389 113.873C930.892 113.892 930.411 114.058 930.008 114.35C929.605 114.641 929.297 115.046 929.123 115.512C928.95 115.978 928.917 116.485 929.031 116.97C929.331 118.221 929.123 119.539 928.453 120.637C927.783 121.735 926.705 122.523 925.455 122.828C924.963 122.939 924.515 123.195 924.169 123.563C923.824 123.932 923.597 124.395 923.517 124.894C923.438 125.393 923.511 125.904 923.726 126.361C923.94 126.818 924.287 127.2 924.722 127.458L924.721 127.475Z" fill="white"/>
<path d="M931.224 127.46C930.888 127.451 930.555 127.509 930.242 127.631C929.929 127.753 929.644 127.936 929.403 128.169C928.469 129.053 927.224 129.531 925.939 129.499C924.653 129.467 923.433 128.928 922.545 127.998C922.315 127.755 922.04 127.56 921.734 127.424C921.429 127.288 921.1 127.215 920.765 127.207C920.354 127.202 919.947 127.297 919.581 127.484C919.214 127.672 918.899 127.946 918.663 128.284C918.427 128.621 918.278 129.011 918.227 129.419C918.177 129.828 918.227 130.243 918.373 130.627C918.52 131.012 918.758 131.355 919.068 131.626C919.378 131.897 919.749 132.089 920.149 132.184C920.55 132.278 920.968 132.274 921.366 132.17C921.764 132.066 922.131 131.866 922.435 131.588C922.897 131.145 923.443 130.797 924.04 130.565C924.638 130.333 925.275 130.221 925.916 130.235C926.556 130.25 927.188 130.391 927.774 130.65C928.36 130.909 928.89 131.281 929.332 131.745C929.62 132.039 929.976 132.258 930.369 132.383C930.762 132.508 931.179 132.535 931.584 132.462C931.99 132.388 932.371 132.216 932.695 131.961C933.018 131.706 933.275 131.376 933.441 130.999C933.608 130.622 933.679 130.21 933.649 129.799C933.62 129.388 933.49 128.99 933.271 128.641C933.052 128.292 932.751 128.002 932.394 127.796C932.038 127.59 931.636 127.474 931.224 127.46Z" fill="white"/>
<path d="M957.475 132.447C958.827 132.529 959.699 132.09 960.093 131.129C960.226 130.766 960.339 130.298 960.429 129.728L959.709 129.656C959.52 130.927 959.156 131.555 958.618 131.541C958.213 131.479 958.037 131.003 958.092 130.115L958.447 124.309C958.588 121.995 957.601 120.503 955.486 119.835C954.939 119.671 954.341 119.569 953.693 119.53C951.174 119.376 949.557 119.825 948.842 120.878C948.659 121.146 948.557 121.437 948.538 121.752C948.494 122.474 948.809 122.948 949.483 123.175C949.646 123.241 949.82 123.28 950.005 123.291C950.802 123.34 951.362 122.984 951.688 122.223C951.732 122.114 951.798 121.932 951.888 121.678C952.137 120.949 952.425 120.502 952.751 120.336C952.96 120.256 953.195 120.224 953.454 120.24C954.324 120.293 954.82 120.853 954.94 121.92C954.991 122.313 954.999 122.779 954.967 123.316L954.856 125.121C950.091 124.923 947.626 126.036 947.459 128.461C947.358 130.109 948.016 131.208 949.432 131.76C949.85 131.915 950.318 132.009 950.836 132.041C952.41 132.137 953.604 131.615 954.417 130.475C954.58 130.244 954.716 130.001 954.824 129.747C955.116 131.364 955.999 132.264 957.475 132.447ZM952.354 130.935C951.43 130.841 951.008 129.988 951.088 128.376C951.163 127.154 951.712 126.388 952.734 126.079C953.282 125.945 953.973 125.885 954.809 125.899L954.644 128.593C954.213 129.868 953.599 130.63 952.803 130.878C952.633 130.924 952.483 130.943 952.354 130.935Z" fill="white"/>
<path d="M968.202 132.099L966.147 131.973L966.514 125.974C966.762 124.037 967.307 122.881 968.148 122.505C968.281 122.457 968.403 122.437 968.514 122.444C968.718 122.456 968.927 122.683 969.142 123.123C969.439 123.736 969.777 124.129 970.157 124.301C970.339 124.367 970.541 124.408 970.763 124.421C971.504 124.467 972.053 124.147 972.411 123.463C972.537 123.229 972.608 122.982 972.623 122.723C972.68 121.797 972.262 121.186 971.369 120.89C971.151 120.82 970.921 120.779 970.68 120.764C969.532 120.694 968.495 121.086 967.569 121.94C967.153 122.36 966.827 122.824 966.592 123.33L966.555 120.735L961.695 120.437L961.65 121.16L963.261 121.258L962.708 130.313C962.658 131.128 962.305 131.571 961.65 131.643C961.463 131.668 961.249 131.674 961.008 131.659L960.964 132.381L968.825 132.862C968.851 132.436 968.745 132.197 968.506 132.146C968.415 132.121 968.313 132.106 968.202 132.099Z" fill="white"/>
<path d="M977.138 127.32C977.296 124.728 977.712 123.09 978.386 122.406C978.801 122.004 979.36 121.824 980.064 121.868C981.249 121.94 981.972 122.588 982.231 123.812C982.406 124.604 982.442 125.842 982.339 127.527C982.173 130.231 981.717 131.913 980.971 132.573C980.539 132.937 980 133.099 979.352 133.06C978.204 132.99 977.499 132.352 977.238 131.146C977.065 130.336 977.031 129.061 977.138 127.32ZM980.247 121.154C977.969 121.015 976.172 121.685 974.855 123.166C973.935 124.225 973.43 125.495 973.339 126.977C973.211 129.069 973.832 130.771 975.201 132.081C976.291 133.114 977.632 133.68 979.224 133.777C981.409 133.911 983.17 133.228 984.507 131.73C985.506 130.602 986.052 129.26 986.147 127.704C986.274 125.63 985.642 123.965 984.25 122.709C983.174 121.77 981.84 121.251 980.247 121.154Z" fill="white"/>
<path d="M992.84 133.606L992.34 133.575L992.806 126.411C993.007 124.955 993.547 124.03 994.426 123.638C994.674 123.523 994.919 123.473 995.16 123.488C995.845 123.53 996.31 123.986 996.554 124.856C996.659 125.271 996.696 125.729 996.665 126.229L996.29 132.367C996.243 133.126 996.04 133.569 995.679 133.696C995.509 133.741 995.275 133.755 994.979 133.737L994.935 134.459L1000.82 134.819C1000.85 134.393 1000.74 134.154 1000.5 134.103C1000.4 134.077 1000.28 134.061 1000.17 134.055L999.701 134.026L1000.14 126.915L1000.15 126.72C1000.37 125.191 1000.93 124.268 1001.82 123.951C1002.01 123.888 1002.2 123.863 1002.39 123.874C1003.18 123.923 1003.7 124.428 1003.94 125.391C1004.02 125.787 1004.05 126.216 1004.03 126.679L1003.65 132.817C1003.6 133.577 1003.4 134.02 1003.04 134.146C1002.87 134.192 1002.64 134.205 1002.34 134.187L1002.3 134.909L1008.63 135.297C1008.65 134.871 1008.55 134.632 1008.31 134.58C1008.2 134.555 1008.09 134.539 1007.98 134.532L1007.06 134.476L1007.51 127.226C1007.62 125.411 1007.09 124.088 1005.94 123.255C1005.4 122.869 1004.81 122.656 1004.16 122.617C1002.37 122.525 1000.97 123.304 999.977 124.953C999.613 123.612 998.877 122.739 997.767 122.337C997.476 122.245 997.182 122.19 996.885 122.171C995.107 122.081 993.76 122.817 992.847 124.378L992.832 122.342L987.888 122.039L987.844 122.762L989.455 122.86L988.901 131.915C988.849 132.767 988.422 133.215 987.62 133.259C987.489 133.269 987.35 133.27 987.202 133.261L987.157 133.983L993.463 134.369C993.489 133.943 993.383 133.704 993.144 133.653C993.053 133.628 992.951 133.613 992.84 133.606Z" fill="white"/>
<path d="M1015.95 135.02L1014.92 134.957L1015.61 123.735L1010.47 123.421L1010.43 124.143L1012.04 124.241L1011.48 133.297C1011.43 134.111 1011.08 134.554 1010.43 134.626C1010.24 134.652 1010.02 134.657 1009.78 134.642L1009.74 135.365L1016.57 135.782C1016.6 135.357 1016.49 135.118 1016.25 135.066C1016.16 135.042 1016.06 135.026 1015.95 135.02ZM1016.08 120.111C1016.13 119.297 1015.81 118.673 1015.11 118.24C1014.81 118.035 1014.48 117.922 1014.13 117.901C1013.33 117.852 1012.71 118.176 1012.25 118.874C1012.07 119.178 1011.96 119.506 1011.94 119.858C1011.89 120.673 1012.22 121.288 1012.92 121.702C1013.22 121.888 1013.54 121.991 1013.87 122.012C1014.69 122.062 1015.31 121.756 1015.74 121.094C1015.95 120.791 1016.06 120.463 1016.08 120.111Z" fill="white"/>
<path d="M1017.27 135.825L1021.46 136.082L1021.51 135.359L1019.56 135.24L1023.15 131.278L1025.67 135.614L1024.14 135.521L1024.1 136.243L1030.52 136.635C1030.54 136.209 1030.41 135.969 1030.11 135.914C1030.04 135.891 1029.96 135.876 1029.87 135.871L1029.31 135.837L1025.63 129.478L1028.6 126.063C1029 125.585 1029.49 125.337 1030.07 125.316C1030.35 125.296 1030.52 125.195 1030.59 125.013C1030.61 124.903 1030.63 124.784 1030.64 124.654L1026.53 124.403L1026.48 125.125L1028.29 125.235L1025.2 128.754L1022.98 124.911L1024.51 125.004L1024.55 124.282L1018.11 123.888L1018.06 124.61L1019.34 124.688L1022.77 130.586L1019.25 134.413C1018.83 134.852 1018.34 135.101 1017.78 135.159C1017.52 135.162 1017.37 135.264 1017.32 135.466C1017.29 135.576 1017.28 135.695 1017.27 135.825Z" fill="white"/>
<path d="M1110.99 128.806C1108.25 128.639 1102.89 126.081 1103.06 123.34L1103.02 123.338C1102.88 125.531 1103.63 127.688 1105.08 129.335C1106.54 130.981 1108.59 131.981 1110.78 132.115C1112.1 132.196 1113.33 132.796 1114.2 133.783C1115.08 134.771 1115.52 136.065 1115.44 137.381C1115.36 138.698 1114.76 139.928 1113.78 140.802C1112.79 141.676 1111.49 142.122 1110.18 142.042C1108.86 141.962 1107.63 141.362 1106.76 140.374C1105.88 139.387 1105.44 138.092 1105.52 136.776C1105.58 135.69 1105.44 134.601 1105.08 133.572C1104.73 132.543 1104.17 131.594 1103.45 130.779C1102.73 129.964 1101.86 129.299 1100.88 128.822C1099.9 128.345 1098.84 128.065 1097.75 127.999L1097.75 128.039C1100.49 128.207 1102.38 133.83 1102.21 136.572L1102.21 136.572C1102.11 138.208 1102.5 139.837 1103.32 141.253C1104.15 142.668 1105.37 143.808 1106.85 144.526C1108.32 145.245 1109.97 145.51 1111.6 145.289C1113.22 145.068 1114.74 144.371 1115.97 143.285C1117.2 142.199 1118.08 140.773 1118.49 139.188C1118.91 137.603 1118.85 135.93 1118.32 134.38C1117.78 132.831 1116.8 131.474 1115.5 130.482C1114.19 129.489 1112.62 128.906 1110.99 128.806Z" fill="white"/>
<path d="M1126.41 145.169C1126.4 145.426 1126.62 145.671 1126.87 145.687L1128.16 145.765C1128.46 145.784 1128.88 145.707 1128.9 145.322L1129.37 137.673L1134.27 137.972L1133.81 145.622C1133.79 145.878 1134.01 146.123 1134.26 146.139L1135.73 146.229C1135.98 146.244 1136.23 146.027 1136.25 145.771L1136.81 136.479C1136.83 136.222 1136.61 135.977 1136.36 135.961L1129.5 135.542L1129.7 132.359C1129.81 130.588 1130.93 129.91 1131.98 129.974C1133.11 130.043 1134.38 130.816 1134.6 130.959C1134.87 131.13 1135.1 131.17 1135.28 130.871L1135.99 129.755C1136.13 129.558 1136.1 129.247 1135.9 129.106C1135.38 128.739 1133.84 127.82 1132.12 127.715C1129.58 127.56 1127.39 129.152 1127.21 132.207L1127.01 135.39L1125.81 135.316C1125.52 135.299 1125.31 135.491 1125.29 135.774L1125.22 136.929C1125.2 137.186 1125.39 137.429 1125.68 137.446L1126.88 137.52L1126.41 145.169Z" fill="white"/>
<path d="M1139.58 145.975C1139.57 146.231 1139.78 146.477 1140.04 146.492L1141.27 146.568C1141.68 146.593 1141.97 146.559 1141.99 146.122L1142.39 139.603C1142.51 139.429 1143.29 138.395 1144.78 138.486C1145.11 138.506 1145.49 138.633 1145.64 138.719C1145.87 138.836 1146.13 138.8 1146.27 138.526L1146.96 137.306C1147.29 136.63 1146.12 136.301 1145.15 136.241C1143.28 136.127 1142.25 137.301 1142.05 137.546L1141.83 136.656C1141.79 136.448 1141.59 136.281 1141.41 136.27L1140.67 136.225C1140.41 136.209 1140.16 136.426 1140.15 136.683L1139.58 145.975Z" fill="white"/>
<path d="M1147.67 141.806C1147.49 144.758 1149.39 147.322 1152.5 147.512C1154.22 147.617 1155.59 147.057 1156.38 146.461C1156.7 146.223 1156.63 146.013 1156.47 145.797L1155.81 144.777C1155.62 144.508 1155.43 144.6 1155.11 144.761C1154.58 145.063 1153.71 145.422 1152.78 145.365C1151.12 145.263 1149.99 143.829 1150 142.438L1156.98 142.865C1157.21 142.879 1157.43 142.712 1157.47 142.457C1157.51 142.279 1157.55 141.947 1157.56 141.767C1157.73 139.021 1155.8 136.893 1153.13 136.73C1150.05 136.541 1147.85 138.905 1147.67 141.806ZM1150.23 140.829C1150.46 139.555 1151.6 138.62 1152.99 138.705C1154.24 138.781 1155.21 139.897 1155.21 141.133L1150.23 140.829Z" fill="white"/>
<path d="M1159.71 147.206C1159.69 147.463 1159.91 147.708 1160.17 147.723L1161.63 147.813C1161.89 147.829 1162.13 147.612 1162.15 147.355L1163.19 130.362C1163.2 130.106 1162.99 129.861 1162.73 129.845L1161.27 129.755C1161.01 129.74 1160.76 129.957 1160.75 130.213L1159.71 147.206Z" fill="white"/>
<path d="M1167.51 133.667C1168.36 133.719 1169.07 133.092 1169.12 132.271C1169.17 131.424 1168.54 130.716 1167.69 130.664C1166.87 130.614 1166.19 131.242 1166.14 132.089C1166.09 132.91 1166.69 133.617 1167.51 133.667ZM1165.47 147.558C1165.46 147.815 1165.68 148.06 1165.93 148.076L1167.4 148.165C1167.65 148.181 1167.9 147.964 1167.91 147.708L1168.48 138.416C1168.5 138.159 1168.28 137.914 1168.02 137.898L1166.56 137.809C1166.3 137.793 1166.06 138.01 1166.04 138.266L1165.47 147.558Z" fill="white"/>
<path d="M1243.05 151.28L1243.9 137.367L1243.91 134.517L1245.65 137.474L1254.6 151.987L1257.09 152.139L1258.4 130.758L1255.62 130.588L1254.78 144.247L1254.74 147.511L1252.75 144.058L1244.04 129.88L1241.58 129.729L1240.27 151.111L1243.05 151.28ZM1265.06 152.947C1268.25 153.142 1270.05 150.946 1270.69 148.935L1270.62 150.02C1270.49 152.19 1271.59 153.026 1273.19 153.124L1274.97 153.233L1275.13 150.712L1274.14 150.652C1273.57 150.616 1273.29 150.376 1273.34 149.642L1273.73 143.291C1273.95 139.621 1272.05 137.23 1268.25 136.998C1264.8 136.787 1262.39 138.594 1261.36 140.133L1263.13 142.194C1264.03 140.552 1265.57 139.365 1267.77 139.5C1270.2 139.648 1270.98 141.041 1270.96 142.866L1265.23 145.014C1262.97 145.868 1261.32 147.081 1261.19 149.155C1261.07 151.198 1262.45 152.787 1265.06 152.947ZM1264.03 148.88C1264.09 147.923 1264.8 147.326 1266.31 146.713L1270.94 144.882L1270.81 147.02C1270.67 149.254 1268.71 150.864 1266.1 150.704C1264.66 150.616 1263.97 149.933 1264.03 148.88ZM1282.9 154.07C1285.04 154.201 1286.57 153.302 1287.3 152.29L1286.55 149.488C1286.07 150.42 1285.04 151.511 1283.67 151.427C1282.46 151.353 1281.56 150.817 1281.68 148.839L1282.2 140.35L1287.28 140.661L1287.41 138.491L1282.34 138.18L1282.58 134.159L1279.68 136.032L1279.56 138.01L1277.07 137.858L1276.94 140.028L1279.43 140.18L1278.86 149.499C1278.7 152.147 1280.38 153.916 1282.9 154.07ZM1292 154.274L1292.53 145.53C1292.69 142.882 1294.62 140.661 1296.6 140.782C1297.72 140.851 1298.15 141.646 1298.1 142.54C1298.04 143.401 1297.57 144.333 1297.03 144.749L1300.06 144.934C1300.34 144.567 1300.75 143.631 1300.83 142.322C1300.97 140.152 1299.44 138.874 1297.78 138.773C1295.17 138.613 1293.44 140.589 1292.69 142.946L1292.94 138.829L1290.17 138.659L1289.22 154.105L1292 154.274ZM1308.45 155.601C1312.73 155.863 1315.95 152.889 1316.25 148.006C1316.55 143.124 1313.71 139.779 1309.43 139.517C1305.16 139.256 1301.97 142.232 1301.67 147.114C1301.37 151.997 1304.17 155.339 1308.45 155.601ZM1308.59 153.271C1305.98 153.111 1304.27 151.181 1304.51 147.288C1304.75 143.363 1306.68 141.687 1309.29 141.847C1311.94 142.009 1313.68 143.909 1313.44 147.834C1313.2 151.728 1311.24 153.433 1308.59 153.271ZM1322.04 156.112L1322.58 147.368C1322.73 144.783 1323.95 142.775 1326.27 142.918C1328.6 143.06 1329.59 144.241 1329.45 146.507L1328.84 156.528L1331.61 156.697L1332.15 147.953C1332.31 145.369 1333.52 143.361 1335.88 143.505C1338.18 143.646 1339.19 144.829 1339.06 147.095L1338.44 157.115L1341.19 157.283L1341.84 146.592C1342.04 143.337 1340.59 141.423 1337.56 141.237C1334.75 141.066 1333.03 143.042 1332.27 145.462C1332.29 142.549 1330.82 140.825 1327.98 140.652C1325.21 140.482 1323.49 142.427 1322.74 144.751L1322.99 140.666L1320.21 140.497L1319.26 155.942L1322.04 156.112ZM1348.55 158.054C1351.74 158.249 1353.54 156.053 1354.18 154.041L1354.11 155.126C1353.98 157.297 1355.08 158.133 1356.68 158.23L1358.46 158.34L1358.62 155.819L1357.63 155.758C1357.05 155.723 1356.78 155.482 1356.83 154.748L1357.21 148.397C1357.44 144.728 1355.53 142.337 1351.74 142.105C1348.29 141.894 1345.87 143.7 1344.85 145.239L1346.61 147.301C1347.52 145.658 1349.06 144.471 1351.26 144.606C1353.69 144.754 1354.47 146.147 1354.45 147.972L1348.72 150.12C1346.45 150.974 1344.81 152.187 1344.68 154.262C1344.56 156.304 1345.93 157.894 1348.55 158.054ZM1347.52 153.987C1347.58 153.029 1348.29 152.432 1349.8 151.82L1354.43 149.989L1354.3 152.127C1354.16 154.361 1352.2 155.971 1349.59 155.811C1348.15 155.723 1347.45 155.04 1347.52 153.987Z" fill="white"/>
<path d="M11.492 62.7701L14.6686 62.9643L10.7003 73.7723L7.06992 73.5503L5.92919 66.9451L3.97227 73.3608L0.341902 73.1388L-2.27968 61.9277L1.09419 62.1341L2.33768 69.9733L4.50752 62.3429L8.0787 62.5613L9.30246 70.3993L11.492 62.7701Z" fill="white"/>
<path d="M22.4602 70.9862C22.9759 70.5425 23.2602 69.8865 23.3133 69.0184C23.3664 68.1503 23.1637 67.4711 22.7052 66.981C22.2475 66.4777 21.7029 66.2068 21.0716 66.1681C20.4402 66.1295 19.8667 66.3321 19.3511 66.7759C18.8354 67.2196 18.5511 67.8756 18.498 68.7437C18.4449 69.6118 18.6472 70.2975 19.1049 70.8008C19.5634 71.291 20.1084 71.5553 20.7397 71.594C21.3711 71.6326 21.9446 71.43 22.4602 70.9862ZM16.2775 72.6677C15.3685 71.5559 14.9643 70.1779 15.0649 68.5337C15.1655 66.8895 15.7346 65.5711 16.7723 64.5783C17.8108 63.5724 19.0272 63.1121 20.4215 63.1974C21.8289 63.2835 22.8757 63.869 23.5619 64.954L23.65 63.5137L27.0239 63.72L26.3505 74.7295L22.9767 74.5232L23.0744 72.925C22.1881 74.0326 21.061 74.5446 19.693 74.4609C18.325 74.3773 17.1865 73.7795 16.2775 72.6677Z" fill="white"/>
<path d="M28.5874 63.8157L32.1783 64.0353L34.1832 72.3766L37.1898 64.3418L40.7807 64.5614L36.2007 75.332L31.8206 75.0641L28.5874 63.8157Z" fill="white"/>
<path d="M46.3331 76.0903C44.7284 75.9922 43.4444 75.3987 42.4812 74.31C41.5188 73.2081 41.0899 71.8022 41.1945 70.0923C41.2991 68.3823 41.8887 67.0519 42.9635 66.101C44.0514 65.151 45.4043 64.7254 47.0222 64.8244C48.6401 64.9233 49.9512 65.5052 50.9555 66.57C51.9597 67.6349 52.4076 69.0551 52.299 70.8309C52.2757 71.2123 52.2276 71.5658 52.1549 71.8915L44.5785 71.4281C44.6145 71.9188 44.807 72.3332 45.156 72.6714C45.5058 72.9965 45.8911 73.1719 46.312 73.1976C46.7461 73.2242 47.0708 73.2044 47.2861 73.1384C47.5021 73.0592 47.6586 72.9829 47.7555 72.9097C47.8664 72.824 48.0068 72.6874 48.1767 72.4997L51.8268 72.723C51.4435 73.8086 50.7574 74.6644 49.7686 75.2904C48.7805 75.9033 47.6353 76.17 46.3331 76.0903ZM48.851 69.5704C48.8297 69.0541 48.6315 68.6261 48.2562 68.2863C47.8817 67.9333 47.4248 67.7404 46.8855 67.7074C46.3462 67.6744 45.8823 67.8111 45.4939 68.1174C45.1063 68.4105 44.8508 68.8108 44.7273 69.3181L48.851 69.5704Z" fill="white"/>
<path d="M58.179 65.6256L58.0535 67.6775C58.9312 66.2789 60.0278 65.6198 61.3431 65.7003L61.1332 69.1333L60.3045 69.0826C59.5284 69.0352 58.9318 69.1835 58.5147 69.5277C58.1107 69.8727 57.8806 70.5055 57.8243 71.4263L57.5057 76.635L54.1318 76.4287L54.8052 65.4192L58.179 65.6256Z" fill="white"/>
<path d="M66.3213 64.8759C65.9166 65.234 65.438 65.3962 64.8855 65.3624C64.3331 65.3286 63.8778 65.1093 63.5197 64.7045C63.1615 64.2998 62.9994 63.8212 63.0332 63.2687C63.0678 62.7031 63.2874 62.2412 63.6922 61.8831C64.097 61.525 64.5756 61.3628 65.1281 61.3966C65.6805 61.4304 66.1358 61.6497 66.4939 62.0545C66.852 62.4593 67.0138 62.9445 66.9792 63.5101C66.9454 64.0625 66.7261 64.5178 66.3213 64.8759ZM62.494 76.9401L63.1674 65.9307L66.5413 66.137L65.8679 77.1465L62.494 76.9401Z" fill="white"/>
<path d="M75.654 74.2793C76.1302 73.8332 76.3956 73.1628 76.4503 72.2684C76.505 71.374 76.3163 70.6825 75.884 70.194C75.4526 69.6923 74.9212 69.4221 74.2899 69.3835C73.6585 69.3449 73.0981 69.5483 72.6088 69.9936C72.1334 70.4267 71.8684 71.0904 71.8137 71.9848C71.759 72.8793 71.9473 73.5773 72.3787 74.079C72.8233 74.5815 73.3613 74.852 73.9926 74.8907C74.624 74.9293 75.1778 74.7255 75.654 74.2793ZM69.7882 75.9604C68.7468 74.8537 68.2781 73.4519 68.3818 71.7551C68.4856 70.0583 69.1209 68.7373 70.2878 67.7921C71.4554 66.8337 72.8547 66.4043 74.4858 66.5041C76.1168 66.6039 77.4468 67.2001 78.4758 68.2929C79.5188 69.3733 79.9883 70.7619 79.8846 72.4587C79.7808 74.1555 79.1513 75.49 77.996 76.4624C76.8407 77.4347 75.4475 77.871 73.8165 77.7713C72.1854 77.6715 70.8427 77.0679 69.7882 75.9604Z" fill="white"/>
<path d="M161.678 67.6513L162.773 66.6828C164.923 64.7808 168.224 64.9324 170.138 67.0712C170.864 67.8833 171.316 68.9023 171.433 69.9849C171.549 71.0675 171.324 72.1594 170.788 73.1072C170.531 73.5599 170.421 74.0815 170.475 74.5993C170.529 75.117 170.743 75.605 171.088 75.9951C171.805 75.3596 172.389 74.5892 172.808 73.7278C173.226 72.8665 173.471 71.9311 173.529 70.9751C173.586 70.0191 173.454 69.0612 173.141 68.1561C172.827 67.251 172.339 66.4165 171.703 65.7003C169.027 62.6929 164.399 62.4665 161.384 65.1337L150.95 74.3653L150.191 73.5075C148.256 71.3213 148.449 67.9528 150.67 66.0574C151.491 65.3581 152.51 64.9311 153.585 64.8353C154.659 64.7396 155.737 64.9797 156.67 65.5227C157.095 65.7746 157.589 65.8856 158.081 65.8399C158.574 65.7942 159.039 65.5941 159.41 65.2682L159.437 65.2448C159.445 65.2376 159.452 65.2287 159.457 65.2188C159.462 65.2089 159.465 65.1982 159.465 65.1872C159.466 65.1762 159.464 65.1652 159.461 65.1548C159.457 65.1443 159.452 65.1347 159.444 65.1265C158.172 63.7243 156.403 62.8723 154.513 62.7507C152.624 62.6291 150.761 63.2475 149.319 64.475C146.212 67.1273 145.935 71.8369 148.642 74.8963L157.871 85.328L156.763 86.3083C154.613 88.2103 151.311 88.0587 149.397 85.9199C148.672 85.1078 148.219 84.0888 148.103 83.0063C147.986 81.9237 148.212 80.8318 148.748 79.8839C149.005 79.4312 149.114 78.9096 149.06 78.3919C149.006 77.8741 148.792 77.3861 148.447 76.9961C147.731 77.6316 147.146 78.4019 146.728 79.2632C146.309 80.1246 146.064 81.0599 146.007 82.0161C145.95 82.972 146.082 83.93 146.395 84.835C146.708 85.7401 147.197 86.5746 147.832 87.2908C150.508 90.2983 155.136 90.5249 158.151 87.8575L168.599 78.6135L169.361 79.4746C171.263 81.6244 171.112 84.9256 168.973 86.8399C168.161 87.5653 167.142 88.0178 166.059 88.1344C164.977 88.2509 163.885 88.0253 162.937 87.4893C162.484 87.2322 161.962 87.1229 161.444 87.177C160.926 87.2309 160.438 87.4454 160.048 87.7903C160.684 88.5069 161.454 89.0913 162.315 89.51C163.177 89.9287 164.112 90.1737 165.068 90.2308C166.024 90.2878 166.982 90.156 167.887 89.8428C168.792 89.5296 169.627 89.0411 170.343 88.4053C173.35 85.7296 173.577 81.1014 170.91 78.0866L161.678 67.6513ZM159.428 83.9491L152.328 75.9236L160.12 69.0301L167.22 77.0556L159.428 83.9491Z" fill="white"/>
<path d="M185.159 86.852C183.655 86.7599 182.531 86.248 181.789 85.3163C181.053 84.3849 180.685 83.1514 180.686 81.6158L183.11 81.1649C183.082 83.5602 183.805 84.8029 185.279 84.893C186.473 84.9661 187.107 84.4056 187.18 83.2115C187.202 82.8571 187.172 82.5275 187.091 82.2229C187.016 81.9125 186.887 81.6268 186.703 81.3659C186.519 81.0987 186.351 80.8856 186.199 80.7265C186.047 80.5611 185.838 80.3579 185.571 80.1169L182.732 77.5463C182.211 77.0837 181.806 76.5127 181.517 75.8334C181.234 75.1482 181.119 74.3827 181.171 73.5369C181.246 72.3056 181.688 71.3495 182.498 70.6687C183.307 69.9878 184.343 69.686 185.605 69.7633C186.961 69.8462 188.017 70.2447 188.772 70.9588C189.534 71.6671 189.971 72.6333 190.083 73.8573C190.094 73.9891 190.105 74.1708 190.116 74.4024L187.691 74.8533C187.691 74.7472 187.685 74.5877 187.674 74.3747C187.614 73.6096 187.412 72.9886 187.067 72.5118C186.728 72.0291 186.201 71.7659 185.486 71.7222C184.913 71.6872 184.462 71.8219 184.131 72.1263C183.801 72.4244 183.618 72.8596 183.583 73.4317C183.526 74.3707 183.876 75.1818 184.633 75.8648L187.472 78.4354C188.985 79.8201 189.687 81.408 189.578 83.199C189.503 84.4241 189.065 85.3586 188.264 86.0025C187.469 86.6468 186.434 86.93 185.159 86.852Z" fill="white"/>
<path d="M194.449 85.4539C195.077 85.4923 195.684 85.3671 196.27 85.0784L196.722 77.6903C196.698 77.6763 196.638 77.6352 196.542 77.567C196.446 77.4987 196.377 77.4539 196.335 77.4326C196.299 77.4054 196.236 77.3641 196.146 77.3086C196.055 77.2532 195.98 77.2142 195.919 77.1918C195.864 77.1635 195.791 77.134 195.699 77.1034C195.614 77.067 195.529 77.0399 195.442 77.0222C195.362 77.0048 195.276 76.9932 195.182 76.9875C194.983 76.9754 194.803 77.0112 194.642 77.0949C194.487 77.1729 194.357 77.271 194.249 77.3893C194.142 77.5076 194.044 77.6795 193.956 77.905C193.873 78.1309 193.811 78.3331 193.769 78.5116C193.727 78.6838 193.688 78.9186 193.651 79.216C193.614 79.5071 193.588 79.7333 193.572 79.8946C193.562 80.0563 193.548 80.2833 193.53 80.5756C193.529 80.588 193.529 80.5974 193.528 80.6036C193.522 80.7093 193.512 80.8803 193.497 81.1167C193.483 81.353 193.469 81.58 193.455 81.7976C193.442 82.0153 193.43 82.2205 193.418 82.4133C193.399 82.8303 193.395 83.1984 193.406 83.5175C193.425 83.8307 193.465 84.1421 193.527 84.4518C193.596 84.7556 193.706 84.9965 193.858 85.1743C194.016 85.3462 194.213 85.4394 194.449 85.4539ZM195.911 90.9366L196.196 86.2817C195.819 86.6269 195.434 86.903 195.041 87.1099C194.653 87.3172 194.217 87.406 193.732 87.3763C193.272 87.3482 192.869 87.208 192.522 86.9559C192.182 86.6979 191.914 86.3787 191.719 85.9985C191.53 85.6187 191.379 85.1756 191.267 84.6694C191.161 84.1573 191.095 83.657 191.068 83.1685C191.048 82.6803 191.054 82.1751 191.086 81.6527L191.197 79.8337C191.23 79.2926 191.286 78.7998 191.363 78.355C191.44 77.9103 191.557 77.4743 191.714 77.047C191.871 76.6196 192.065 76.2632 192.295 75.9776C192.531 75.6862 192.832 75.4611 193.197 75.3025C193.563 75.1376 193.979 75.0694 194.446 75.0979C194.713 75.1143 194.96 75.1668 195.185 75.2555C195.417 75.3384 195.634 75.464 195.836 75.6324C196.044 75.8012 196.204 75.9483 196.315 76.0737C196.432 76.1932 196.59 76.3714 196.788 76.6082L196.861 75.4142L199.249 75.5602L198.3 91.0826L195.911 90.9366Z" fill="white"/>
<path d="M202.128 87.8898C201.605 87.8579 201.197 87.6487 200.902 87.2624C200.608 86.8699 200.477 86.4 200.511 85.8527L201.133 75.6755L203.521 75.8216L202.943 85.2712C202.928 85.5199 202.99 85.7266 203.13 85.8912C203.276 86.0562 203.47 86.1461 203.713 86.1609C203.843 86.1689 203.972 86.1612 204.098 86.1377C204.224 86.1142 204.349 86.0687 204.472 86.0013C204.601 85.9281 204.701 85.8718 204.772 85.8325C204.844 85.7869 204.945 85.712 205.076 85.6076C205.214 85.5037 205.299 85.4402 205.331 85.4172L205.909 75.9676L208.297 76.1137L207.567 88.054L205.179 87.9079L205.258 86.6206C205.009 86.8114 204.826 86.95 204.708 87.0364C204.597 87.1232 204.424 87.2406 204.19 87.3886C203.957 87.5304 203.751 87.6333 203.572 87.6973C203.4 87.7554 203.185 87.8046 202.926 87.845C202.668 87.8916 202.401 87.9065 202.128 87.8898Z" fill="white"/>
<path d="M213.031 86.5904C213.199 86.6007 213.364 86.5608 213.525 86.4708C213.693 86.3812 213.82 86.2922 213.907 86.2039C213.993 86.1156 214.1 85.9973 214.228 85.849C214.249 85.8191 214.266 85.7983 214.279 85.7866L214.481 82.4843C214.377 82.5467 214.206 82.6423 213.967 82.7713C213.728 82.9002 213.537 83.0072 213.395 83.0921C213.253 83.1708 213.08 83.2851 212.878 83.435C212.675 83.5787 212.517 83.7219 212.402 83.8647C212.287 84.0012 212.183 84.1728 212.09 84.3793C211.996 84.5858 211.942 84.8041 211.928 85.0342C211.867 86.023 212.235 86.5417 213.031 86.5904ZM211.717 88.4763C211.052 88.4356 210.503 88.1149 210.072 87.5143C209.647 86.9078 209.457 86.2438 209.501 85.5224C209.536 84.9441 209.665 84.4245 209.887 83.9636C210.114 83.5032 210.346 83.1397 210.581 82.8731C210.816 82.6004 211.197 82.3303 211.726 82.063C212.254 81.7895 212.653 81.6047 212.921 81.5088C213.189 81.4128 213.654 81.2571 214.316 81.0417C214.431 81.005 214.517 80.9759 214.574 80.9545L214.627 80.0963C214.664 79.493 214.608 79.0215 214.461 78.6816C214.313 78.3355 214.009 78.1484 213.549 78.1203C213.139 78.0952 212.835 78.2201 212.637 78.4952C212.445 78.7644 212.322 79.147 212.267 79.643C212.257 79.711 212.247 79.8134 212.239 79.9502L209.851 79.8042C209.933 78.6606 210.309 77.7692 210.979 77.1297C211.648 76.4903 212.543 76.2048 213.662 76.2733C214.775 76.3413 215.628 76.7399 216.22 77.469C216.819 78.1923 217.084 79.1167 217.015 80.2423L216.686 85.6155C216.61 86.8592 216.652 87.8605 216.811 88.6194L214.433 88.4739L214.225 86.6634C214.086 86.9046 213.971 87.0911 213.882 87.223C213.799 87.3552 213.677 87.5194 213.515 87.7155C213.353 87.9054 213.195 88.0517 213.038 88.1545C212.883 88.2511 212.69 88.333 212.462 88.4001C212.233 88.4673 211.985 88.4927 211.717 88.4763Z" fill="white"/>
<path d="M218.565 88.7266L219.296 76.7863L221.684 76.9324L221.586 78.5276C221.857 78.0698 222.234 77.6808 222.715 77.3607C223.204 77.0347 223.731 76.8891 224.296 76.9237C224.315 76.9248 224.442 76.9451 224.677 76.9844L224.515 79.6243C224.084 79.4232 223.648 79.3091 223.207 79.2821C222.709 79.2517 222.299 79.3764 221.976 79.6563C221.653 79.9361 221.476 80.3217 221.446 80.813L220.953 88.8727L218.565 88.7266Z" fill="white"/>
<path d="M228.312 89.4913C227.734 89.456 227.236 89.3256 226.819 89.1004C226.409 88.8755 226.086 88.5967 225.85 88.264C225.621 87.9254 225.444 87.5025 225.319 86.9955C225.194 86.4823 225.116 85.975 225.084 85.4737C225.059 84.9665 225.061 84.3799 225.089 83.7137C225.102 83.1902 225.134 82.6678 225.185 82.1465C225.242 81.5258 225.316 80.9779 225.407 80.5028C225.505 80.0219 225.649 79.5594 225.838 79.1154C226.028 78.6713 226.259 78.3109 226.532 78.0342C226.811 77.7579 227.164 77.5454 227.591 77.3967C228.025 77.2423 228.522 77.1821 229.082 77.2164C229.592 77.2476 230.035 77.3434 230.413 77.5038C230.796 77.6583 231.107 77.8802 231.346 78.1694C231.591 78.4528 231.787 78.7644 231.935 79.1043C232.089 79.4446 232.195 79.8537 232.253 80.3316C232.311 80.8034 232.342 81.2672 232.346 81.7231C232.355 82.1793 232.342 82.7029 232.306 83.2937L232.289 83.5735L227.512 83.2814L227.476 83.8784C227.471 83.9593 227.463 84.0867 227.453 84.2609C227.426 84.4902 227.408 84.7294 227.399 84.9786C227.397 85.2219 227.395 85.4621 227.393 85.6991C227.391 85.9362 227.411 86.1653 227.454 86.3864C227.497 86.6013 227.554 86.792 227.625 86.9586C227.696 87.1253 227.8 87.2596 227.937 87.3616C228.081 87.4641 228.252 87.5213 228.451 87.5335C228.7 87.5487 228.908 87.5146 229.075 87.4313C229.243 87.3416 229.37 87.2027 229.456 87.0145C229.549 86.8267 229.617 86.6373 229.66 86.4464C229.703 86.2555 229.736 86.0141 229.76 85.7222L229.791 85.2185L232.16 85.3634L232.131 85.8392C231.997 87.1106 231.624 88.0553 231.012 88.6733C230.4 89.2913 229.5 89.564 228.312 89.4913ZM227.585 82.0874L229.955 82.2323L229.999 81.514C230.012 81.1965 230.01 80.9186 229.994 80.6804C229.977 80.4421 229.935 80.2024 229.869 79.9611C229.809 79.7202 229.702 79.5327 229.548 79.3984C229.394 79.2641 229.198 79.1898 228.962 79.1753C228.72 79.1605 228.51 79.2132 228.334 79.3336C228.165 79.4543 228.032 79.6365 227.936 79.8803C227.846 80.1183 227.779 80.3545 227.733 80.5889C227.688 80.8233 227.652 81.1052 227.625 81.4344L227.585 82.0874Z" fill="white"/>
<path d="M238.107 90.0904C236.602 89.9984 235.479 89.4864 234.737 88.5547C234.001 87.6233 233.633 86.3898 233.633 84.8543L236.058 84.4033C236.03 86.7986 236.753 88.0413 238.227 88.1315C239.421 88.2045 240.055 87.644 240.128 86.45C240.149 86.0955 240.119 85.7659 240.038 85.4614C239.964 85.1509 239.834 84.8652 239.651 84.6043C239.467 84.3372 239.299 84.124 239.147 83.9649C238.994 83.7995 238.785 83.5963 238.519 83.3553L235.68 80.7847C235.159 80.3221 234.754 79.7512 234.465 79.0718C234.182 78.3866 234.066 77.6211 234.118 76.7753C234.194 75.544 234.636 74.5879 235.445 73.9071C236.255 73.2263 237.291 72.9245 238.553 73.0017C239.909 73.0846 240.964 73.4831 241.72 74.1972C242.482 74.9055 242.919 75.8717 243.031 77.0958C243.042 77.2275 243.053 77.4092 243.063 77.6408L240.639 78.0918C240.639 77.9857 240.633 77.8261 240.621 77.6132C240.562 76.848 240.36 76.227 240.014 75.7502C239.675 75.2676 239.148 75.0044 238.433 74.9606C237.861 74.9256 237.41 75.0603 237.079 75.3647C236.749 75.6628 236.566 76.098 236.531 76.6701C236.474 77.6092 236.823 78.4202 237.581 79.1032L240.42 81.6738C241.933 83.0585 242.635 84.6464 242.525 86.4374C242.45 87.6626 242.012 88.5971 241.212 89.241C240.417 89.8852 239.382 90.1684 238.107 90.0904Z" fill="white"/>
<path d="M247.24 90.649C246.301 90.5915 245.631 90.3103 245.231 89.8052C244.838 89.3004 244.664 88.5626 244.711 87.5917L245.165 80.1664L243.971 80.0933L244.081 78.3023L245.275 78.3753L245.531 74.1962L247.919 74.3423L247.663 78.5214L249.454 78.6309L249.345 80.422L247.553 80.3124L247.127 87.2807C247.098 87.7595 247.142 88.1149 247.259 88.3468C247.376 88.5786 247.633 88.7068 248.031 88.7311C248.205 88.7417 248.475 88.727 248.839 88.6869L248.72 90.6272C248.119 90.6653 247.625 90.6726 247.24 90.649Z" fill="white"/>
<path d="M256.562 90.0955C255.963 90.808 255.023 91.125 253.741 91.0466C252.46 90.9683 251.566 90.539 251.058 89.7589C250.55 88.9788 250.339 87.886 250.425 86.4805L250.644 82.8985C250.73 81.493 251.073 80.434 251.672 79.7216C252.271 79.0092 253.211 78.6922 254.492 78.7705C255.773 78.8489 256.668 79.2781 257.176 80.0583C257.684 80.8384 257.894 81.9312 257.809 83.3366L257.589 86.9187C257.503 88.3242 257.161 89.3831 256.562 90.0955ZM253.418 88.9857C253.546 89.0434 253.693 89.0774 253.861 89.0877C254.029 89.098 254.177 89.082 254.304 89.0399C254.438 88.9981 254.547 88.9455 254.632 88.882C254.724 88.8127 254.802 88.7114 254.866 88.578C254.931 88.4384 254.982 88.3167 255.02 88.2128C255.057 88.109 255.088 87.958 255.113 87.7598C255.138 87.5615 255.153 87.4064 255.16 87.2945C255.174 87.1767 255.187 87.0028 255.201 86.7727L255.42 83.1906C255.435 82.9605 255.442 82.7893 255.443 82.6769C255.45 82.5588 255.453 82.3998 255.453 82.2001C255.453 82.0003 255.44 81.8466 255.416 81.739C255.391 81.6314 255.355 81.5074 255.307 81.3672C255.26 81.2207 255.195 81.1106 255.112 81.0369C255.036 80.9573 254.934 80.8887 254.806 80.8309C254.685 80.7736 254.54 80.7398 254.373 80.7295C254.205 80.7192 254.054 80.735 253.92 80.7767C253.793 80.8189 253.683 80.8746 253.592 80.9439C253.507 81.0074 253.432 81.1089 253.367 81.2485C253.303 81.3819 253.252 81.5005 253.214 81.6043C253.177 81.7081 253.145 81.8592 253.121 82.0574C253.096 82.2557 253.077 82.4137 253.064 82.5315C253.057 82.6434 253.046 82.8144 253.032 83.0445L252.813 86.6266C252.799 86.8567 252.789 87.0308 252.781 87.149C252.781 87.2613 252.781 87.4174 252.781 87.6171C252.781 87.8169 252.794 87.9706 252.818 88.0782C252.843 88.1858 252.879 88.3129 252.926 88.4593C252.974 88.5996 253.035 88.7095 253.112 88.789C253.195 88.8628 253.297 88.9283 253.418 88.9857Z" fill="white"/>
<path d="M259.293 91.2176L260.023 79.2774L262.411 79.4234L262.332 80.7107C262.707 80.409 263.011 80.1811 263.245 80.0268C263.48 79.8664 263.797 79.7235 264.198 79.5983C264.606 79.4671 265.033 79.4153 265.481 79.4426C265.991 79.4738 266.393 79.6857 266.688 80.0782C266.982 80.4708 267.113 80.9375 267.079 81.4786L266.457 91.6558L264.069 91.5098L264.617 82.5545C264.642 82.1379 264.601 81.8326 264.495 81.6389C264.388 81.4388 264.155 81.3278 263.794 81.3057C263.589 81.2932 263.381 81.3242 263.17 81.3987C262.967 81.4674 262.813 81.536 262.708 81.6045C262.605 81.6668 262.455 81.77 262.259 81.9141L261.681 91.3637L259.293 91.2176Z" fill="white"/>
<path d="M271.913 92.1581C271.335 92.1227 270.837 91.9924 270.42 91.7671C270.009 91.5423 269.686 91.2634 269.451 90.9307C269.222 90.5921 269.045 90.1693 268.92 89.6623C268.795 89.149 268.717 88.6417 268.685 88.1404C268.66 87.6333 268.661 87.0466 268.69 86.3804C268.703 85.8569 268.735 85.3345 268.786 84.8133C268.842 84.1925 268.916 83.6446 269.008 83.1696C269.106 82.6887 269.25 82.2262 269.439 81.7821C269.629 81.338 269.86 80.9776 270.133 80.7009C270.412 80.4246 270.765 80.2121 271.192 80.0635C271.626 79.909 272.123 79.8489 272.683 79.8831C273.193 79.9143 273.636 80.0101 274.013 80.1705C274.397 80.325 274.708 80.5469 274.946 80.8362C275.191 81.1196 275.388 81.4312 275.535 81.7711C275.689 82.1113 275.795 82.5204 275.853 82.9984C275.912 83.4701 275.943 83.9339 275.946 84.3898C275.956 84.8461 275.943 85.3696 275.906 85.9604L275.889 86.2402L271.113 85.9481L271.077 86.5451C271.072 86.626 271.064 86.7535 271.053 86.9276C271.027 87.1569 271.009 87.3962 271 87.6453C270.998 87.8886 270.995 88.1288 270.993 88.3659C270.991 88.603 271.012 88.832 271.054 89.0531C271.097 89.268 271.154 89.4587 271.225 89.6254C271.296 89.792 271.4 89.9263 271.538 90.0284C271.681 90.1308 271.853 90.1881 272.052 90.2003C272.3 90.2155 272.508 90.1814 272.676 90.098C272.844 90.0084 272.971 89.8695 273.057 89.6812C273.15 89.4934 273.217 89.304 273.26 89.1131C273.303 88.9223 273.337 88.6809 273.361 88.389L273.392 87.8852L275.761 88.0301L275.732 88.5059C275.598 89.7773 275.225 90.7221 274.613 91.3401C274.001 91.958 273.101 92.2307 271.913 92.1581ZM271.186 84.7541L273.556 84.899L273.6 84.1807C273.613 83.8632 273.611 83.5853 273.594 83.3471C273.578 83.1089 273.536 82.8691 273.47 82.6279C273.41 82.387 273.302 82.1994 273.148 82.0651C272.994 81.9309 272.799 81.8565 272.563 81.8421C272.32 81.8272 272.111 81.88 271.935 82.0003C271.765 82.121 271.633 82.3033 271.537 82.5471C271.447 82.785 271.38 83.0212 271.334 83.2557C271.288 83.4901 271.252 83.7719 271.226 84.1011L271.186 84.7541Z" fill="white"/>
<path d="M460.202 100.705C459.837 100.245 459.535 99.7371 459.303 99.196C458.936 98.3477 458.405 97.582 457.74 96.944C457.075 96.306 456.29 95.8086 455.431 95.4811C454.679 95.1958 453.884 95.0455 453.081 95.0372C453.666 95.0393 454.228 95.2639 454.655 95.666C455.082 96.0681 455.342 96.6181 455.383 97.2056C455.517 98.4777 455.999 99.6871 456.776 100.699C457.553 101.71 458.594 102.484 459.783 102.933C461.142 103.447 462.628 103.515 464.029 103.127C462.516 102.782 461.166 101.928 460.202 100.705Z" fill="white"/>
<path d="M450.704 94.7669C450.835 95.5553 451.103 96.3151 451.497 97.0122C451.209 96.5059 451.123 95.9112 451.255 95.3452C451.387 94.7793 451.728 94.2832 452.211 93.955C453.239 93.2111 454.039 92.1984 454.521 91.0297C455.003 89.8609 455.149 88.582 454.942 87.3353C454.705 85.9091 454.019 84.594 452.981 83.5797C453.438 85.0604 453.372 86.6512 452.795 88.0889C452.574 88.6314 452.282 89.1427 451.926 89.6093C451.379 90.3431 450.986 91.1784 450.77 92.0659C450.554 92.9534 450.52 93.875 450.669 94.7763L450.704 94.7669Z" fill="white"/>
<path d="M453.952 97.6827C453.661 98.1899 453.193 98.5671 452.64 98.7384C452.087 98.9098 451.492 98.8628 450.973 98.6067C449.826 98.088 448.559 97.9036 447.314 98.0742C446.069 98.2448 444.894 98.7637 443.922 99.5728C442.812 100.5 442.021 101.76 441.661 103.173C442.711 102.029 444.112 101.282 445.634 101.056C446.206 100.973 446.786 100.962 447.359 101.025C448.259 101.128 449.171 101.046 450.04 100.786C450.909 100.525 451.718 100.09 452.419 99.5065C453.033 98.9943 453.555 98.3773 453.96 97.6832L453.952 97.6827Z" fill="white"/>
<path d="M341.939 96.9816L345.211 97.1817L345.698 89.2147C345.752 88.3323 346.037 87.6395 346.552 87.1362C347.068 86.6329 347.717 86.4052 348.499 86.4531C349.298 86.502 349.915 86.8071 350.348 87.3684C350.8 87.914 350.998 88.6364 350.943 89.5355L350.456 97.5024L353.727 97.7025L354.214 89.7356C354.268 88.8532 354.553 88.1603 355.069 87.6571C355.584 87.1538 356.233 86.9261 357.016 86.974C357.815 87.0229 358.431 87.328 358.865 87.8893C359.316 88.4349 359.514 89.1573 359.459 90.0564L358.972 98.0233L362.244 98.2234L362.778 89.4823C362.84 88.4667 362.67 87.5621 362.267 86.7688C361.882 85.9597 361.328 85.3159 360.606 84.8372C359.883 84.3584 359.039 84.0895 358.073 84.0305C357.174 83.9755 356.347 84.1087 355.592 84.4302C354.853 84.7527 354.229 85.266 353.718 85.9701C353.359 85.2797 352.817 84.7117 352.092 84.2663C351.384 83.8219 350.572 83.5717 349.656 83.5157C348.807 83.4638 348.04 83.5839 347.353 83.8762C346.667 84.1685 346.129 84.6369 345.738 85.2815L345.842 83.5832L342.77 83.3953L341.939 96.9816Z" fill="white"/>
<path d="M369.114 98.9445C370.879 99.0524 372.33 98.5562 373.467 97.4559L373.378 98.9044L376.475 99.0938L377.028 90.053C377.086 89.104 376.896 88.2484 376.458 87.4863C376.02 86.7242 375.388 86.1173 374.564 85.6658C373.757 85.1986 372.795 84.9309 371.68 84.8627C370.315 84.7792 369.079 85.0295 367.974 85.6137C366.869 86.1979 366.084 87.0105 365.619 88.0517L368.212 89.5138C368.499 88.913 368.92 88.4458 369.476 88.1121C370.032 87.7617 370.668 87.6084 371.384 87.6522C372.133 87.6981 372.72 87.9345 373.145 88.3616C373.588 88.7731 373.792 89.2702 373.756 89.8529L373.729 90.3025L369.643 90.7043C368.028 90.873 366.815 91.3085 366.003 92.0109C365.192 92.7133 364.751 93.6306 364.682 94.7628C364.609 95.9615 364.975 96.9365 365.782 97.6878C366.588 98.439 367.699 98.8579 369.114 98.9445ZM368.086 94.8456C368.144 93.8966 368.822 93.3364 370.119 93.1651L373.576 92.7999L373.542 93.3494C373.485 94.2818 373.112 95.0528 372.423 95.6624C371.751 96.273 370.898 96.5468 369.866 96.4836C369.317 96.45 368.875 96.2893 368.542 96.0016C368.21 95.6971 368.058 95.3118 368.086 94.8456Z" fill="white"/>
<path d="M379.499 99.2788L382.77 99.4789L383.233 91.9116C383.296 90.8793 383.628 90.0974 384.229 89.5659C384.847 89.0188 385.614 88.7733 386.53 88.8293L387.704 88.9011L387.881 86.004L387.082 85.9552C386.25 85.9042 385.508 86.0093 384.857 86.2703C384.206 86.5313 383.681 87.0424 383.284 87.8035L383.402 85.8805L380.33 85.6926L379.499 99.2788Z" fill="white"/>
<path d="M395.39 100.401C395.94 100.435 396.483 100.426 397.021 100.376L397.194 97.5534C396.874 97.584 396.582 97.5912 396.315 97.5749C395.516 97.526 394.944 97.3072 394.6 96.9185C394.257 96.5298 394.106 95.9942 394.147 95.3115L394.503 89.4924L397.625 89.6834L397.804 86.7613L394.682 86.5704L394.871 83.4735L391.6 83.2734L391.535 84.3224C391.495 84.9884 391.281 85.485 390.893 85.8122C390.505 86.1395 389.978 86.2827 389.312 86.242L389.063 86.2267L388.884 89.1487L391.232 89.2923L390.865 95.2862C390.772 96.8014 391.116 98.009 391.897 98.909C392.694 99.8101 393.858 100.307 395.39 100.401Z" fill="white"/>
<path d="M400.446 85.3938L403.718 85.5939L403.932 82.0975L400.66 81.8974L400.446 85.3938ZM399.522 100.503L402.794 100.704L403.625 87.1174L400.353 86.9173L399.522 100.503Z" fill="white"/>
<path d="M405.815 100.888L409.086 101.088L409.574 93.1215C409.628 92.2391 409.921 91.5468 410.453 91.0445C411.002 90.5433 411.684 90.3176 412.5 90.3675C413.316 90.4174 413.957 90.7241 414.424 91.2874C414.908 91.8351 415.123 92.5585 415.068 93.4576L414.581 101.425L417.853 101.625L418.387 92.8835C418.449 91.8678 418.287 90.9638 417.901 90.1715C417.516 89.3625 416.946 88.7176 416.19 88.2368C415.45 87.7571 414.581 87.4867 413.582 87.4256C412.733 87.3736 411.957 87.4933 411.254 87.7845C410.567 88.0768 410.021 88.5364 409.615 89.1633L409.718 87.49L406.646 87.3021L405.815 100.888Z" fill="white"/>
<path d="M427.244 102.5C428.559 102.58 429.776 102.354 430.895 101.821C432.015 101.271 432.933 100.483 433.647 99.4571C434.363 98.4146 434.762 97.2107 434.846 95.8454C434.929 94.4802 434.679 93.2449 434.095 92.1396C433.527 91.0353 432.721 90.142 431.676 89.4598C430.632 88.7775 429.444 88.3957 428.112 88.3142C426.763 88.2317 425.529 88.4654 424.409 89.0153C423.289 89.5651 422.372 90.353 421.657 91.3789C420.959 92.4057 420.569 93.6018 420.485 94.9671C420.402 96.3324 420.644 97.5672 421.211 98.6715C421.795 99.7768 422.61 100.671 423.654 101.353C424.715 102.036 425.912 102.418 427.244 102.5ZM427.427 99.5029C426.695 99.4581 426.048 99.243 425.486 98.8577C424.942 98.4735 424.522 97.9631 424.226 97.3267C423.949 96.6747 423.834 95.9574 423.882 95.1749C423.93 94.3923 424.131 93.7027 424.485 93.106C424.855 92.5103 425.334 92.055 425.922 91.74C426.527 91.4093 427.196 91.2664 427.928 91.3112C428.661 91.356 429.291 91.5784 429.818 91.9783C430.363 92.3625 430.774 92.8724 431.053 93.5077C431.348 94.1442 431.472 94.8536 431.424 95.6362C431.376 96.4187 431.166 97.1161 430.795 97.7285C430.441 98.3252 429.97 98.781 429.382 99.096C428.812 99.4121 428.16 99.5477 427.427 99.5029Z" fill="white"/>
<path d="M535.334 91.7698L536.794 92.615C537.064 92.753 537.362 92.826 537.666 92.8281C537.969 92.8303 538.268 92.7615 538.54 92.6272L540.019 91.7881C540.275 91.6253 540.489 91.4042 540.643 91.143C540.797 90.8818 540.887 90.5878 540.905 90.2852L540.918 88.5816C540.904 88.2794 540.818 87.9848 540.669 87.7217C540.52 87.4585 540.311 87.2341 540.059 87.0665L538.6 86.2026C538.331 86.0631 538.033 85.989 537.729 85.9863C537.426 85.9835 537.127 86.0521 536.855 86.1865L535.375 87.0257C535.12 87.189 534.907 87.4101 534.753 87.6712C534.599 87.9323 534.509 88.2261 534.49 88.5286L534.476 90.2321C534.487 90.5382 534.57 90.8373 534.719 91.1047C534.869 91.3722 535.079 91.6002 535.334 91.7698Z" fill="white"/>
<path d="M544.284 94.524L542.825 93.66C542.556 93.5221 542.258 93.4491 541.956 93.447C541.654 93.445 541.355 93.5138 541.084 93.648L539.589 94.4862C539.334 94.6504 539.122 94.8718 538.968 95.1327C538.814 95.3936 538.724 95.6869 538.703 95.9891L538.69 97.6927C538.705 97.9949 538.79 98.2895 538.939 98.5527C539.089 98.8158 539.298 99.0403 539.55 99.2078L541.01 100.053C541.278 100.192 541.576 100.266 541.878 100.269C542.181 100.272 542.48 100.203 542.751 100.069L544.234 99.2298C544.489 99.0649 544.702 98.8428 544.855 98.5812C545.009 98.3197 545.1 98.0259 545.12 97.7232L545.133 96.0233C545.117 95.7249 545.032 95.4342 544.885 95.1741C544.737 94.914 544.532 94.6915 544.284 94.524Z" fill="white"/>
<path d="M548.493 101.97L547.033 101.125C546.764 100.985 546.466 100.911 546.163 100.908C545.859 100.905 545.56 100.974 545.288 101.109L543.808 101.948C543.553 102.111 543.34 102.333 543.187 102.594C543.033 102.855 542.942 103.148 542.923 103.451L542.909 105.154C542.927 105.452 543.014 105.741 543.162 106C543.31 106.259 543.515 106.48 543.763 106.646L545.223 107.491C545.493 107.629 545.791 107.702 546.094 107.704C546.397 107.707 546.696 107.638 546.968 107.504L548.452 106.665C548.706 106.501 548.919 106.28 549.072 106.018C549.225 105.757 549.315 105.464 549.333 105.162L549.356 103.489C549.342 103.186 549.257 102.89 549.107 102.626C548.957 102.362 548.746 102.137 548.493 101.97Z" fill="white"/>
<path d="M537.655 97.0739L537.664 95.7479C537.685 95.4458 537.775 95.1525 537.929 94.8916C538.083 94.6306 538.295 94.4092 538.55 94.2451L541.435 92.6113C541.706 92.4771 542.005 92.4083 542.307 92.4104C542.61 92.4125 542.907 92.4855 543.176 92.6234L544.322 93.2981C544.591 93.4375 544.889 93.5117 545.192 93.5145C545.496 93.5172 545.795 93.4486 546.067 93.3141L547.547 92.4712C547.802 92.3078 548.015 92.0866 548.169 91.8255C548.323 91.5644 548.413 91.2708 548.432 90.9684L548.446 89.2685C548.432 88.9657 548.347 88.6704 548.197 88.4065C548.048 88.1426 547.839 87.9176 547.586 87.7497L546.127 86.8857C545.858 86.7477 545.559 86.6747 545.256 86.6726C544.953 86.6704 544.654 86.7392 544.382 86.8735L542.873 87.6957C542.618 87.8594 542.406 88.0808 542.253 88.3419C542.1 88.6031 542.01 88.8966 541.991 89.1988L541.978 90.5245C541.96 90.8267 541.87 91.1202 541.717 91.3814C541.564 91.6425 541.351 91.8639 541.097 92.0276L538.211 93.6613C537.94 93.7958 537.64 93.8644 537.337 93.8616C537.034 93.8588 536.736 93.7847 536.466 93.6453L535.325 92.9746C535.055 92.8351 534.757 92.761 534.454 92.7582C534.151 92.7555 533.851 92.824 533.58 92.9585L532.1 93.7977C531.844 93.9609 531.631 94.1821 531.477 94.4432C531.323 94.7044 531.233 94.9981 531.214 95.3005L531.201 97.0041C531.214 97.307 531.299 97.6025 531.449 97.8664C531.598 98.1303 531.808 98.3553 532.06 98.523L533.52 99.3681C533.79 99.5061 534.088 99.5791 534.391 99.5813C534.694 99.5834 534.994 99.5146 535.265 99.3804L536.745 98.5412C537 98.384 537.215 98.1696 537.373 97.9149C537.531 97.6602 537.628 97.3723 537.655 97.0739Z" fill="white"/>
<path d="M552.639 96.7133C552.624 96.4107 552.538 96.1158 552.389 95.8521C552.24 95.5884 552.031 95.3632 551.779 95.1944L550.319 94.3493C550.05 94.2116 549.751 94.1387 549.448 94.1366C549.145 94.1344 548.846 94.2031 548.574 94.337L547.094 95.1762C546.839 95.3399 546.627 95.5611 546.473 95.8222C546.319 96.0832 546.228 96.3767 546.209 96.679L546.199 98.0087C546.18 98.311 546.089 98.6045 545.935 98.8656C545.782 99.1266 545.569 99.3479 545.314 99.5116L542.433 101.142C542.161 101.276 541.862 101.345 541.559 101.343C541.256 101.341 540.957 101.268 540.687 101.13L539.542 100.455C539.273 100.317 538.975 100.244 538.673 100.242C538.37 100.24 538.072 100.309 537.801 100.443L536.306 101.277C536.051 101.441 535.839 101.663 535.685 101.924C535.531 102.185 535.441 102.478 535.42 102.78L535.407 104.484C535.421 104.786 535.507 105.08 535.656 105.344C535.806 105.607 536.015 105.831 536.267 105.999L537.725 106.863C537.994 107.002 538.292 107.076 538.594 107.079C538.897 107.082 539.196 107.013 539.467 106.878L540.95 106.04C541.205 105.875 541.417 105.654 541.571 105.393C541.724 105.132 541.815 104.839 541.836 104.537L541.845 103.207C541.865 102.905 541.955 102.611 542.109 102.35C542.263 102.089 542.476 101.868 542.731 101.704L545.612 100.07C545.884 99.9358 546.183 99.8671 546.487 99.8699C546.79 99.8727 547.088 99.9468 547.357 100.086L548.499 100.757C548.768 100.896 549.066 100.971 549.37 100.973C549.673 100.976 549.972 100.907 550.244 100.773L551.728 99.9341C551.982 99.7701 552.194 99.5487 552.348 99.2876C552.501 99.0265 552.59 98.7331 552.609 98.431L552.639 96.7133Z" fill="white"/>
<path d="M558.11 90.2349L563.754 90.5801L565.746 101.456L569.048 90.904L574.942 91.2645L568.522 108.119L562.153 107.729L558.11 90.2349Z" fill="white"/>
<path d="M579.421 108.986C578.022 108.9 576.959 108.384 576.231 107.437C575.504 106.49 575.187 105.242 575.282 103.694L575.753 96.0017L581.047 96.3256L580.59 103.793C580.567 104.176 580.649 104.482 580.835 104.71C581.039 104.923 581.308 105.04 581.641 105.061C581.974 105.081 582.321 105.002 582.683 104.823L582.746 108.312C582.362 108.572 581.866 108.759 581.257 108.872C580.666 108.987 580.053 109.024 579.421 108.986ZM578.514 94.2906C577.732 94.2427 577.081 93.9605 576.561 93.4441C576.059 92.912 575.829 92.288 575.873 91.5721C575.917 90.8561 576.237 90.274 576.832 89.8258C577.428 89.3776 578.092 89.1759 578.825 89.2207C579.59 89.2675 580.233 89.5575 580.752 90.0906C581.287 90.6247 581.534 91.2331 581.492 91.9158C581.448 92.6483 581.127 93.2387 580.532 93.687C579.936 94.1352 579.264 94.3364 578.514 94.2906Z" fill="white"/>
<path d="M584.913 96.7375L590.183 97.0598L590.027 99.6072C590.47 98.6483 591.031 97.9556 591.709 97.5292C592.404 97.087 593.193 96.893 594.076 96.9469L594.551 101.062C592.969 100.965 591.793 101.069 591.022 101.373C590.269 101.661 589.87 102.171 589.826 102.904L589.429 109.397L584.159 109.075L584.913 96.7375Z" fill="white"/>
<path d="M601.861 110.358C600.462 110.273 599.23 109.922 598.165 109.305C597.116 108.689 596.314 107.88 595.757 106.876C595.217 105.857 594.986 104.715 595.064 103.45C595.141 102.185 595.517 101.088 596.193 100.16C596.869 99.2151 597.764 98.5095 598.879 98.0429C600.01 97.5773 601.275 97.3873 602.674 97.4729C604.089 97.5594 605.321 97.9105 606.37 98.5261C607.436 99.1262 608.239 99.9273 608.78 100.93C609.32 101.932 609.552 103.066 609.474 104.331C609.396 105.613 609.019 106.727 608.342 107.671C607.684 108.6 606.788 109.306 605.656 109.788C604.541 110.255 603.276 110.445 601.861 110.358ZM602.14 106.615C602.823 106.657 603.396 106.441 603.859 105.968C604.34 105.48 604.605 104.836 604.654 104.036C604.703 103.237 604.518 102.574 604.099 102.047C603.698 101.505 603.156 101.212 602.473 101.171C601.79 101.129 601.208 101.352 600.727 101.841C600.264 102.314 600.008 102.95 599.959 103.749C599.91 104.548 600.086 105.219 600.488 105.762C600.907 106.289 601.457 106.573 602.14 106.615Z" fill="white"/>
<path d="M617.681 116.866C616.765 116.81 615.896 116.665 615.075 116.431L615.701 112.759C616.344 112.899 616.94 112.985 617.49 113.019C618.522 113.082 619.324 112.822 619.894 112.238C620.463 111.672 620.842 110.675 621.029 109.249C619.963 110.571 618.422 111.171 616.407 111.047C615.308 110.98 614.31 110.635 613.412 110.012C612.531 109.39 611.845 108.579 611.355 107.58C610.881 106.582 610.68 105.508 610.75 104.359C610.821 103.194 611.153 102.144 611.744 101.211C612.337 100.262 613.109 99.5316 614.059 99.0215C615.026 98.5125 616.059 98.2915 617.158 98.3587C618.174 98.4209 619.04 98.7412 619.757 99.3198C620.491 99.8828 620.948 100.613 621.127 101.509L621.304 98.6123L626.574 98.9346L625.992 108.45C625.813 111.364 625.013 113.529 623.589 114.946C622.181 116.381 620.212 117.021 617.681 116.866ZM618.26 107.4C618.926 107.441 619.514 107.243 620.026 106.807C620.538 106.353 620.831 105.803 620.904 105.156L620.916 104.956C620.921 104.321 620.689 103.747 620.219 103.234C619.766 102.721 619.215 102.445 618.565 102.406C617.883 102.364 617.285 102.578 616.771 103.048C616.259 103.501 615.982 104.069 615.94 104.752C615.898 105.434 616.103 106.04 616.556 106.569C617.009 107.082 617.577 107.359 618.26 107.4Z" fill="white"/>
<path d="M633.835 112.314C632.753 112.248 631.755 111.903 630.84 111.278C629.943 110.639 629.242 109.81 628.736 108.793C628.231 107.76 628.016 106.635 628.09 105.42C628.163 104.221 628.513 103.156 629.138 102.225C629.764 101.277 630.568 100.558 631.551 100.066C632.534 99.5749 633.558 99.3618 634.623 99.427C635.489 99.4799 636.274 99.7702 636.977 100.298C637.696 100.827 638.218 101.585 638.542 102.575L638.719 99.6775L643.964 99.9982L643.188 112.685L637.943 112.365L638.085 110.042C637.15 111.673 635.733 112.43 633.835 112.314ZM635.7 108.467C636.366 108.508 636.946 108.309 637.441 107.872C637.953 107.418 638.246 106.868 638.319 106.221L638.331 106.021C638.339 105.353 638.107 104.771 637.636 104.274C637.182 103.778 636.638 103.511 636.005 103.472C635.306 103.429 634.691 103.643 634.161 104.111C633.649 104.565 633.372 105.133 633.33 105.815C633.287 106.515 633.501 107.121 633.971 107.634C634.441 108.148 635.017 108.425 635.7 108.467Z" fill="white"/>
<path d="M646.472 100.503L651.492 100.81L651.336 103.357C652.42 101.485 654.011 100.613 656.109 100.741C657.707 100.839 658.921 101.49 659.75 102.693C660.596 103.882 660.958 105.483 660.834 107.498L660.453 113.741L655.208 113.421L655.622 106.652C655.666 105.936 655.541 105.377 655.248 104.975C654.972 104.574 654.559 104.356 654.01 104.323C653.61 104.298 653.211 104.408 652.811 104.651C652.413 104.877 652.074 105.224 651.795 105.691C651.532 106.16 651.382 106.702 651.345 107.318L650.987 113.162L645.718 112.84L646.472 100.503Z" fill="white"/>
<defs>
<clipPath id="bgblur_0_13_2127_clip_path" transform="translate(297 24)"><rect x="-266.895" width="1869" height="100" transform="rotate(3.5 -266.895 0)"/>
</clipPath></defs>
</svg>
